<svg xmlns="http://www.w3.org/2000/svg" viewBox="0 0 460 460" width="614" height="614"><style><![CDATA[.B{fill:#eee}.C{fill:#0d0d09}.D{fill:#e5a72e}]]></style><path d="M0 0h460v460h-97.97c.67-1.93 1.4-3.64.96-5.74-1.1-1.3-2.57-2.33-3.62-3.68a19.67 19.67 0 0 1-.22-2.3c5.06 1.32 9.37 3.95 13.6 6.96 3.88 2.9 8.93 2.57 13.1.53 2.16-1.16 4.47-1.3 6.8-1.9 1.92-1.43 2.55-4.14 4.77-5.44 3.2-2.15 5.9-4.93 7.5-8.48 1.98-4.2 4.84-8.14 5.04-12.93-.56-2.75-1.74-5.14-1.73-8.02-.47-5.97 2.45-11 2.44-17 .05-9.7-3.98-17-6.85-25.88-1.28-3.63-3.46-6.3-3.77-10.2-.58-5.02 2.3-8.97 1.28-14.02-.84-4.65-2-9.17-2.28-13.9-.04-2.6-1.67-4.17-2.56-6.44-1.14-3.76-1.1-8.22-3.7-11.35-1-1.32-2.97-1.85-4.4-2.7-.1-6.14-2.77-11.34-3.75-17.3-.7-3.37-2.78-5.47-4.45-8.3-2.9-5.92-6.98-11.22-9.98-17.1-1.3-2.76-1.86-5.73-4.32-7.74-2.38-2.07-5.16-2.4-6.83-5.16-3.4-4.85-7.52-9.1-12.02-12.93-2.75-1.82-6.4-2.3-9.42-3.65-3.73-1.64-7.6-2.9-11.27-4.7-4.17-2.04-8.84-2.9-12.6-5.36-1.87-1.42-3.1-3.64-4.9-5.13-1.56-.84-3.3-1.33-4.9-2.1-1.4-.96-1.04-3.6-2.37-4.63-3.45-2.38-7.74-3.5-11.12-5.9-1.22-2.67-1.32-6.38-3.6-8.3-1.65-1.76-4.27-3.96-4.73-6.4-.12-4.8 1.96-9.1 3.05-13.6.95-3.44-.76-7.54-.22-11 1.6-2.84 4.1-4.77 5.3-7.93 1.67-4.16 4.3-8.85 4.4-13.36-.1-4.85.65-9.2-1.63-13.72-.47-4.6-2.57-8.47-3.07-13.14-1.94-4.6-3.34-9.27-3.5-14.3-.6-2.58-.85-4.63-.04-7.26 2.5-.16 5.03.1 7.5-.2 2.3-2.15 5.3-3.7 7.1-6.27 1.83-3.2 6.8-2.85 9.92-4.08.85-.86 1.6-1.8 2.45-2.67 2.04-.7 4.4-.75 6.54-.5 2.9 1.5 4.75 5.23 6.5 7.83.82 1.26 1.97 1.54 3.37 1.12.98-2.43-1.26-5.14-1.6-7.63.6-1.7 1.5-3.3 2-5.03-1.15-2.7-3.64-5.4-3.74-8.35-.3-2.98-.08-5.56-2.24-7.94-1.93-2.62-5.54-4.1-6.14-7.3-2.7-.5-3.5-1.12-4.74-3.57.75-.93 1.58-1.78 2.4-2.65-1.87-.04-3.73-.03-5.6-.18.23-1.76 5.1-1.14 4.65-2.84-1.45-.2-2.93-.27-4.36-.53l-.74-2c-1.82-.05-3.28.66-4.82-.67l1.76-1.85c-3.5.5-5.36-2.32-7.2-4.78-3.7-1.2-8.54-.46-12.44-.4-3.3.05-5.9 1.48-8.75 2.9 1.12-2 2.94-2.55 4.6-3.9-1.47.05-2.94.2-4.38.46-5.9.6-10.77 6.2-15.03 9.97-1.6.73-3.7.52-5.4.54-3.35.2-5.74-3.64-9.13-3.95-3.92-.24-7.67-.53-11.52-1.37-2.18-.68-2.84 1.14-4.4 2.23-1.64-1.3-2.47-3.24-4.88-2.86-2.8-.02-2.5 2.62-3.43 4.55-.9-.8-1.78-1.63-2.7-2.4-1.38.85-1.5 4.18-2.57 5.7-.1-2.3.17-4.04-1.53-5.87-.88.85-1.34 2.1-2.08 3.1l-1.65.5c-.42 1.33-.54 2.7-1.2 3.9-2.34-1.96-.01-6.16.65-8.53-.96.16-1.9.38-2.84.66-.86 1-.66 2.74-.94 4-1.27-1.6-2.38-3.07-4.35-3.84l1.43 3.98c-3.38-1.53-6.06-.9-9.56-.34-.76-4.14-3.47-6.87-5.1-10.65-1.63-3-2.04-6.04-5.5-7.5-3.3-1.45-5.2-4.57-8.34-6.12l-.54 4.6c-4.6-.46-9-4.7-13.9-4.57-2.34.2-3.33-1.38-5.2-2.34-1.52-.26-2.95-.42-4.32-1.2-3.63-2-8.02-2.9-12.13-2.46-3.52 3.2-7.43 2.03-11.6 3.54-2.03.7-3.96 1.47-5.5 3 3.25-.36 6.2-1.12 9.48-.45-.02.97-.36 1.75-1 2.36-3.28 3.42-6.32 7-9.95 10.05-1.87 1.5-2.8 3.5-4 5.48-.6-.24-1.17-.57-1.73-1-2.35 1.58-4.62 3.22-7.06 4.67-.7.3-.9.9-.65 1.8l3.35.68c.37 3.22-.43 7.86 1.64 10.54 3.03.42 4.9-4.55 7.88-4.56 2.97-.15 5.92-.02 8.9-.33-.78-1.44-1.75-2.75-2.6-4.13 1.17-2.3 4.24-3.56 5.4-5.97.6-1.16 1.1-2.37 1.7-3.52 2.5-1.47 5.6 1.56 6.03 3.94 1.46 6.76 3.9 12.97 9.36 17.5-1.76-3.73-4.35-6.65-5.27-10.5-.73-2.9-.38-6-1.07-8.88-.6-1.72-2.62-2.72-3.24-4.38 1.8-.96 3.43-.18 5.12.6.7 2.86.6 6.25 1.7 9l.77.3c.24-3.85-.1-7.83.36-11.64 2.4-2.04 8.85-1.87 11.5-.5-2.9 2.82-3.07 6.4-3.58 10.2-.06 1.8 1.28 3.2 2.18 4.62 1.86 2.64 2.8 5.56 5.17 7.87 2 1.9 4 4.7 6.6 5.7 2.67.58 3.03-1.72 4.43-3.34-.3 1.24-.6 2.47-1.13 3.65-3.93.78-8.17-.08-11.35-2.58-2.37-1.8-5.06-2.98-7.57-4.53-1.34-2.07-1.04-5.23-2.64-7.25l-.85.14c-.38 2.8.98 5.13 2.36 7.44 2.8 3.36 7.1 5.33 10.1 8.3-1.54 2.16-6.92.03-9.33.1.92 2.64 3.7 3 6.12 3.3 3 .22 5.64 1.6 8.6 2-2.04 2.64-6.87 3.26-8.73 6.68.4 1.32.92 2.6 1.4 3.92-1.4-.87-2.72-1.54-3.38-3.16-.01-1.33.42-2.66.63-3.97-1.65.33-4.86.4-5.8 1.94.43 1.03.64 2.03.62 3-1.46.2-2.92.24-4.4.25.77-.9 2.33-1.75 2.57-2.92-1.24-.4-2.85-.47-3.85-1.33-1.7-1.65-4.3-1.42-6.54-1.94.42-1 .9-2 1.3-3-.8-.3-3.73.33-3.58-.88 1.45-.93 3-1.2 3.7-2.93-1.8-.07-3.6-.01-5.38-.1l-.04-2.54c-1.4-.24-2.8-.37-4.2-.58.3-1.02 1.76-1.36 2.57-1.96-.34-.98-.75-1.9-1.57-2.58-1.95-.6-4.33-.4-6.03-1.5l.06-.86c1.65.13 3.27.4 4.9.57-.88-3.73-6.28-2.67-9.1-2.64.77 2 2.73 2.77 4.2 4.27-.65 2.22.26 4.7.7 6.95 3.97.73 5.47 3.44 7.37 6.64.9 2.05 4.86 1.57 5.56 3.77-1.9-.13-3.75-.4-5.64-.53.3 2.36 3.18 1.58 4.9 2.34.15.7.4 1.34.73 1.9 1.82.5 3.43.1 4.76 1.68l-1.33 2.15c1.57.9 2.9.2 4.6.13 3.42 1.06 5.96 3.7 3.72 7.36-3.33 1.94-6.67 2-10.32 2.73-3.9 3.23-1.87 9.84 3.23 10.2.42 4.23.7 9-.9 13-.4.93.4 2.18.58 3.12 1.5 3.56-1.95 7.1-.37 10.4.86 2.6.06 5.6.44 8.35.45 3.44 1.24 6.92 2.1 10.3 1.28 4.24 6.02 6.86 5.47 11.3.04 2.6-.17 4.92-1.7 7.1-2.23 3.07-1.57 6.35-1.62 9.94.02 2.26.32 4.06 1.38 6.06 1.6 3.02 2.3 6.83 4.45 9.48l.82.3c.05-3.34-1.08-6.4-1.26-9.75l.74.3c1.86 3.5 2.7 7.17 2.93 11.12.5 1.23 1.17 3.75 2.93 2.95l.78-2.25c2.4 1.3 3.63 2.8 3.85 5.6.3 3 2.22 7.58-.5 9.85-3.5 2.9-6.95 6.32-11.17 7.83l-12.34 5.63c-3.9 1.7-4.88 5.64-8.1 7.84-2.98 1.45-6.3.76-9.13 2.9-2.8 2.12-5.9 2.82-9.2 3.78-3.38 1-4.6 4.65-8.05 5.92-2.4 1.2-5.4 1.77-6.56 4.48-1.8 3.8-3 7.77-3.9 11.87-.6 3.87-5.64 5.96-5.2 10-.07 4.83.16 9.75-1.25 14.5l-1.2.1c-.43-1-.2-3.18-1.38-3.54-1.74 3.6-3.72 7.04-5.5 10.6-1.88 4.85-4.73 8.98-5.98 14.08-1.44 4.55-.63 8.7-.67 13.32.08 1.8-1.02 2.77-1.84 4.22-1.44 2.1-1.68 5.1-2.47 7.5-.95 3.07-3.2 5.08-3.35 8.35-.65 9.52-.9 19.26-2.5 28.68-2.24 7.02-4.26 13.75-3.78 21.24.48 5.64.85 11.25 2.13 16.8.98 4.6.2 8.94 1.58 13.42 1.3 5.07 4.47 9.14 5.77 14.2 1.22 5.42 3.85 10.64 6.38 15.58H0V0z" class="B"/><path d="M142.3 27.22c4.1-.45 8.5.47 12.13 2.46 1.37.8 2.8.95 4.32 1.2 1.86.96 2.85 2.53 5.2 2.34 4.92-.12 9.32 4.1 13.9 4.57.22-1.53.34-3.07.54-4.6 3.15 1.55 5.04 4.67 8.34 6.12 3.45 1.45 3.86 4.5 5.5 7.5 1.64 3.78 4.35 6.5 5.1 10.65 3.5-.55 6.18-1.2 9.56.34l-1.43-3.98c1.97.77 3.08 2.25 4.35 3.84.28-1.25.08-3 .94-4 .93-.28 1.88-.5 2.84-.66-.66 2.37-3 6.57-.65 8.53.65-1.2.77-2.58 1.2-3.9l1.65-.5c.74-1 1.2-2.25 2.08-3.1 1.7 1.83 1.42 3.57 1.53 5.87 1.08-1.52 1.2-4.85 2.57-5.7.93.77 1.82 1.6 2.7 2.4.93-1.93.64-4.57 3.43-4.55 2.4-.38 3.24 1.55 4.88 2.86 1.56-1.1 2.22-2.9 4.4-2.23 3.85.84 7.6 1.13 11.52 1.37 3.4.3 5.78 4.16 9.13 3.95 1.72-.02 3.8.2 5.4-.54 4.26-3.78 9.12-9.38 15.03-9.97 1.44-.27 2.9-.4 4.38-.46-1.66 1.36-3.48 1.92-4.6 3.9 2.84-1.43 5.46-2.86 8.75-2.9 3.9-.06 8.75-.8 12.44.4 1.84 2.46 3.7 5.28 7.2 4.78l-1.76 1.85c1.54 1.33 3 .62 4.82.67l.74 2c1.43.26 2.9.34 4.36.53.44 1.7-4.42 1.08-4.65 2.84 1.86.15 3.72.14 5.6.18-.82.87-1.65 1.72-2.4 2.65 1.23 2.45 2.04 3.07 4.74 3.57.6 3.18 4.2 4.67 6.14 7.3 2.16 2.38 1.95 4.96 2.24 7.94.1 2.95 2.6 5.65 3.74 8.35-.5 1.72-1.4 3.33-2 5.03.33 2.5 2.57 5.2 1.6 7.63-1.4.42-2.55.14-3.37-1.12-1.75-2.6-3.6-6.34-6.5-7.83-2.13-.26-4.5-.22-6.54.5-.85.87-1.6 1.8-2.45 2.67-3.12 1.23-8.1.87-9.92 4.08-1.8 2.58-4.8 4.12-7.1 6.27-2.47.3-5 .05-7.5.2-.8 2.63-.55 4.68.04 7.26.17 5.04 1.57 9.7 3.5 14.3.5 4.67 2.6 8.53 3.07 13.14 2.28 4.53 1.53 8.87 1.63 13.72-.1 4.5-2.73 9.2-4.4 13.36-1.18 3.16-3.7 5.1-5.3 7.93-.54 3.46 1.17 7.56.22 11-1.1 4.5-3.17 8.8-3.05 13.6.46 2.44 3.08 4.64 4.73 6.4 2.3 1.9 2.4 5.62 3.6 8.3 3.38 2.4 7.67 3.52 11.12 5.9 1.33 1.04.97 3.67 2.37 4.63 1.6.78 3.34 1.27 4.9 2.1 1.8 1.5 3.04 3.7 4.9 5.13 3.76 2.47 8.43 3.32 12.6 5.36 3.67 1.8 7.54 3.06 11.27 4.7 3.02 1.35 6.67 1.83 9.42 3.65 4.5 3.83 8.63 8.08 12.02 12.93 1.67 2.75 4.45 3.1 6.83 5.16 2.46 2 3 4.98 4.32 7.74 3 5.9 7.08 11.2 9.98 17.1 1.67 2.84 3.75 4.94 4.45 8.3.98 5.96 3.65 11.16 3.75 17.3 1.42.84 3.38 1.37 4.4 2.7 2.6 3.13 2.56 7.6 3.7 11.35.9 2.27 2.52 3.83 2.56 6.44.28 4.74 1.44 9.26 2.28 13.9 1.02 5.05-1.86 9-1.28 14.02.3 3.9 2.5 6.57 3.77 10.2 2.87 8.9 6.9 16.18 6.85 25.88.01 6-2.9 11.02-2.44 17-.01 2.88 1.17 5.27 1.73 8.02-.2 4.8-3.06 8.74-5.04 12.93-1.6 3.55-4.3 6.33-7.5 8.48-2.22 1.3-2.85 4-4.77 5.44-2.34.6-4.65.73-6.8 1.9-4.18 2.04-9.23 2.37-13.1-.53-4.22-3-8.53-5.64-13.6-6.96a19.67 19.67 0 0 0 .22 2.3c1.05 1.35 2.5 2.37 3.62 3.68.45 2.1-.3 3.8-.96 5.74H351.8c1.55-2.17 2.67-4 1.9-6.78-1.54-.92-2.34.17-3.26 1.26-1.54 1.9-3.02 3.84-4.83 5.52h-3.98c1.9-3.1 3.23-6.15 5.44-8.94 1.63-2.15 3.56-4.26 4.15-6.98-2.1-5.06-6.45-9.4-9.27-14.06-2-3.4-2.26-7.56-3.53-11.48-1.1-3.4-1.73-6.93-1.62-10.53.48-9.43-1.22-19.5-2.14-28.76-.6-2.05-2.13-3.88-3.2-5.72-2.06-3.06-1.77-7.27-3.3-10.73-1.8-4.08-4.27-7.95-5.82-12.13-.7-3.06-.38-6.46-.17-9.57 2.42 2.8 1.87 7.8 3.55 11.1.82 1.03 1.93 1.8 3.3 1.78 1.03-4.6-.7-8.47-1-12.95.67-4.08 1.77-7.7 1.24-11.94 3.16 4.4 1.23 8.1 1.37 12.96.05 2.65 1.9 4 3.1 6.2 1.02 5.1.4 9.76.33 14.78-.14 3.93 2.24 7.8 3.13 11.7 1.15 5.15 3.12 9.38 2.37 14.73-.8 5.93.25 11.63.23 17.55-.03 2.77.7 5.36 1.1 8.07.4 3.26-.5 6.2 1.1 8.98 1.58 2.87 2.83 6.48 5.34 8.65 3.46 2.95 4.54 6.98 8.64 9.32 2.5 1.27 3.84 3.37 5.7 5.33 3.03 1.08 6.08 1.2 8.8 3.12 3.5 2.43 7.4 2.42 11.5 2.56 4.22.08 7.32-3.27 9.8-6.27 2.56-3.22 6.14-4.3 8.12-7.87 2.12-3.74 4.83-6.47 5.5-10.53.73-2.9-.14-5.4-.33-8.36-.4-9 .37-18.05-.04-27.05-.2-4.82-1.6-9.26-3.3-13.73-1.14-3-1.67-6.14-2.88-9.1-.92.8-1.8 1.67-2.7 2.52.5-4.9 1.13-9.8 1.46-14.73-1.17.12-1.93.62-2.26 1.5-1.4 3.6-1.3 7.9-4.2 10.76-1.84 2.14-4.06 3.2-6.73 3.9 2.16-3.23 4.65-5.9 5.6-9.77-2.44 2.27-4.32 5.95-7.3 7.43-4.8 1.42-10.27 2.67-15.24 1.67-1.08-.2-1.45-.6-1.14-1.27 3.58-1 7.4-1.2 10.97-2.7.98-.3 1.5-.8 1.57-1.53-3.44-.17-6.68-.32-9.9 1.14-2.6 1.07-5 1.9-7.8.9l-.3-.86c7.4-3.87 15.66-2.26 22.72-6.4.74-.36 1.14-.98 1.2-1.87.37-4.15.12-8.37.04-12.53-2.62 1.04-4.97 2.2-7.9 2.1-2.98.12-5.32-1.14-8.03-2.05-4.54 2.98-8.8 3.03-13.92 1.55-.04-4.46-1.02-8.85-3.37-12.67-.9-1.38-.3-2.7-.27-4.26-.6.07-1.17.17-1.75.3-.1 1.07-.1 2.17-.3 3.22l-1.75 1.93c-.27 2.42.22 5 .55 7.38.24 1.57 1.12 2.22 2.7 2.07-.47-3.3-1.27-6.36-.94-9.73 1.25.22 1.23 2.32 1.67 3.3.74 2.8 1.7 5.5 2.63 8.24-4.13 2.18-1.84 6.62-2.28 10.35.12 2.45-1.67 5.54.74 7.28 1.67 1 4.3.48 6.2.76-1.6 3.43-3.58 2.7-6.72 2.48-1.7 3.32-2.25 7.6-.83 11.1 2 5.1 3.85 10.83 3.5 16.35-.12 3.12-1.42 5.9-1.46 9 0 3.36-.38 6.65-.73 10-.4 4.77.7 8.96 1.3 13.6l-.53-.24c-2.08-4.95-3.56-9.8-3.58-15.23-1.1.4-1.1 2.3-1.42 3.26-.76 3.15-.8 6.24-.66 9.46-2.04-4.8-1.14-11.7-.56-16.8.4-3.9 2.38-7.16 2.66-11.07.26-3.98.2-8 .1-12-.07-3.56-1.88-6.53-2.06-10-.1-2.72.9-5.32 1.3-8 .1-2.1-1.2-4.4-.48-6.4 1.5-4.37 1.04-9.4.67-13.94-1-.7-2.12-1.3-3.03-2.12-1.5-4.07-.96-7.92-.88-12.1-.3-1.84-1.65-2-3.05-2.77.45-1.06 2.1-1.03 2.6-2.4-1.07-.1-3.97 1.17-4.3-.27.84-1.17 2.04-2.1 3.1-3.06-2.15.74-4.25 1.55-6.43 2.2l2.42-2.93-3.4.63c.23-.78.6-1.56.7-2.37l-.72-1.36c.78-.65 1.7-1.2 2.35-1.97-.86-.62-2.3-.28-3.3-.4l.27-2.52c-1.48 1.2-2.9 2.42-4.48 3.45-.25-.88-1.13-2.24-.62-3.1 1.3-1.1 2.7-1.74 3.48-3.35-1.04.27-2.07.6-3.1.97.3-.7.58-1.4.83-2.1-.52-1.28-.77-2-2.3-2 .1 2.4-.52 4.52-1.02 6.84.4 1.26 1.35 2.5 1.38 3.83-1.82 1.62-4.12 2.8-6.2 4.08-3.3 1.24-7.2 1.3-10.7 1.23-2.4.12-4.03-1.88-5.75-3.26-3.27-2.8-5.25-5.96-8.82-8.2-2.58-1.6-5.42-3.05-8.52-3.1-5.3-.12-10.62-.06-15.93-.06-3-.02-5.9.48-8.65 1.74l.2.65c4.25 1.72 8.7 2.7 12.75 4.94 4.6 2.53 9.53 2.6 11.78 8-3.55-1.3-6.17-4-9.77-4.9-6.9-1.48-11.88-6.1-19.26-6.6-1.77.15-3.48.43-4.95 1.52a51.92 51.92 0 0 1 20.73 5.48c8.18 4.72 15.82 10.86 21.8 18.2 6.4 8.66 13.67 19.47 13.67 30.62.08 4.78 1.2 8.98.47 13.77-2 12.27-7.12 23.07-13.14 33.8-4.75 7.07-10.32 13.63-16.44 19.56-2.43 2.43-5.75 3.27-7.93 6.06-3.6 4.22-8.65 6.08-13.98 7.06-5.35 1.36-10.74 2.18-16.3 1.84-5.45-.25-10.45-2.34-15.96-2.23-4.58.04-8.87-1.1-13.07-2.83-4-1.7-7.75-2.45-11.28-4.7-6.52-4-12.85-7.18-17.8-13.18-2.48-3.13-5.66-6.04-7.38-9.64-5.45-9.8-8.76-21.44-6.96-32.67.27-7.74.95-15.2 3.88-22.46 4.9-10.46 9.56-20.8 18.05-28.95 2.1-1.97 4.54-5 7.55-5.33-.15 2.6-2.08 3.5-3.78 5.1-7.6 6.6-12.58 15.8-17.35 24.58-1.62 5.83-5.24 11.3-4.27 17.14-.58 2.35-1.67 4.4-1.62 6.9 2.06-1.9 3.73-4.18 5.8-6.1 2.1-1.95 3.4-4.58 5.47-6.53 1.45-1.43 4.07-.53 5.93-.58.01-2.8-4.14-1.73-5.77-1.26-3.8.8-5.44 3.56-8.4 5.62 1.18-4.8 5-6.3 9.22-7.8 2.28-.68 4.64-.5 6.5 1.05 1.86 1.28 1.6 3.6 1.05 5.5-2.44.8-3.48-2.07-5.67-2.74-1.86 1.26-1.37 3.05-1.44 5 .15 2.1.18 4.05 1.46 5.8 2.62-.56 5.1-1.95 7.75-1.6 2.68.25 5.3.26 7.93-.47.46-3.9-1.37-7.8-1.17-11.76-.03-2.34 1.13-4.08 2.4-5.92 2.75 3.58 5.66 7.7 6.77 12.1 1.16 5.83-3 9.6-3.1 15.3.2 3.64-2.44 6.08-2.52 9.68-.1 2-.83 5.46 1.93 5.93 2.2.45 2.84-1.8 3.46-3.38 1.06-3.97 5.37-5.5 6.5-9.67.58-1.05.57-3.7 1.9-3.93.44 4.8-.67 9.93-1.3 14.76-.26 2.36-1.7 4.7-1.58 7.05 4.04.2 7.25-1.6 11.3-.34 2.3.4 3.57 2.93 5.65 3.45 2.66-.46 5.23-1.36 7.86-1.95 5.53-1.42 11.15-1 16.74-2.22-.48-1.22-1-2.38-1.83-3.4-5.24.13-12.67 1.74-17.48-.8-6.04-7-5.82-16.78-6.58-25.5-2.65.7-4.4 3.2-7 3.7-.3-.85-.56-1.73-.9-2.58-2.7 1.34-5.05 3.25-7.72 4.7 3.96-6.28 11.44-10.43 16.3-15.5 2.65-2.62 5.8-5.3 7.74-8.5-3.15-1.88-6.56-4.6-10.16-5.4-6 3.57-13.05 5.12-20 4.56 1.4-2.35 3.64-3.93 5.12-6.2-1.17-4.33-4.7-7.6-5.88-11.8 3.22-.15 6.45 2.02 9.42 3.14 3.5 1.35 5.55 5.24 8.37 7.7 1.97-.77 2.7-2.75 5.03-2.77 4.83-.5 10.14-1.16 14-4.4.8-4.58-1.43-9.8-2.9-14.07-.3-.8-.3-1.64-.08-2.57 2.8-.18 5.72.36 8.37 1.27 2.2 1.77 4.17 3.96 6.14 6 .4 1.6-.17 3.44-.15 5.1 3.68.68 6.64 2.1 9.22 4.86.33 1 .36 2.1.08 3.25-1.98 1.6-5.14 1.64-7.5 2.58-.86 1.66-1.16 3.33-2.54 4.54-1 1.23-3.1 2.26-2.67 4.05 5.57.55 11.3-.05 16.9.2 2.5-.08 4.74 1.88 6.6 3.34 1.6 1.5 3.5 2.76 3.1 5.25-1 1.18-2.32 1.25-3.75 1.34-8-.18-15.83-2.75-23.8-2.84-.37 1.9-.42 3.77-.2 5.7 4.2-.48 8.18-.88 12-2.85 2.92 1.6 6.32 4.14 8.84 6.34.3 4.08-3.24 9.85-4.7 13.78 4.22-1.2 9.58-.15 12.5-3.47 2.76-2.4 5.5-4.52 7.1-7.94 1.3-2.05 2.25-5.32 4.36-6.6-.13 4.1-2.26 7.25-4.4 10.6-1.57 2.42-4.36 3.82-5.58 6.37 1.96-.18 2.9-1.5 4.17-2.78 2.72-2.97 5.56-5.1 6.83-9.12.6-1.06.73-3.7 2.1-3.9.2 3.52-1.84 6.55-3.28 9.68-1.26 2.6-3.68 4.22-4.93 6.87 5.46-2.26 6.8-7.75 9.32-12.38l.74-.3c-.5 5.88-4.3 9.1-6.7 14.02 5.03-2.34 6.5-6.68 8.32-11.5 1.92-4.27 1.83-9.38.58-13.82-.57-1.65-1.7-2.22-3.3-2.65.1 1.94.5 3.8.8 5.72-1-1.2-1.4-2.94-2.57-3.95-1 1.36-.5 5.68-2.04 5.95-.13-2.36-.25-4.46-1.32-6.62-1.1-1.74.62-3.32-.12-4.96-2.7-1-5.57-1.26-8.25-.02-.5 1.13-.3 3.4-1.5 3.93-1.18-.9-2.15-1.94-2.82-3.26 1.1-2.65 3.7-6.04 6.86-6 5.3-.32 10.57.45 15.88-.17.01-2.04-1.8-4.1-2.6-5.95-5.65-11.75-15.2-20.3-26.4-26.7-2.53-1.73-5.5-1.78-8.52-2.5-6.65-1.64-13.92-1.15-20.56.3-3.04.5-6.02.74-8.9 1.9-5.35 2-10.73 1.98-16.27 2.84-4.44.6-7.3 3.87-11.67 4.94 2.42-4.37 8-5.38 12.2-7.48 3.8-2.02 7.98-1.35 11.94-2.96 1.26-.65 4.5-.8 4.8-2.32-4.93.4-9.15 2.38-13.93 3.37-4.36.82-8.06 3.33-12.38 4.35-2.1.47-3.2 1.94-4.82 3.16-4.22-.66-7.16 1.63-11.07 2.94-4.04 3.78-7.98 7.37-10.9 12.13-5.54 7.57-9.13 16.6-14.75 24.13-.13-5 3.08-7.64 4.78-12.1 2.93-7.05 6.85-13.45 11.62-19.4 1.38-1.48 3.97-2.58 4.5-4.6-6.2.72-13.28 1.42-17.48 6.64-3.07 2.93-4.38 7.63-8.64 8.46-3.54.54-7.58-1.2-10.36-3.33-2.22-1.65-4.93-3.2-6.65-5.38-1.78-1.74-.78-4.85-.95-7.14-1.2-.14-1.77.2-1.74 1.07-.77 6.2-5.1 10.77-5.78 17.07-.36 5.02-1.74 10.3-.92 15.28.43 2.87.1 5.68.2 8.55.27 3.96 1.84 7.92 1.93 11.9-.8 3.54-2.55 6.8-3.1 10.44-.57 3.83-.82 7.74-1.13 11.6-.52 3.52 4.03 6.85 3.25 10.63-.73 5.16.25 9.7-1.3 14.65-.62 2.28-2 3.94-3 6.02l.16 9.46c0 1.34 1.03 2.1 1.82 3.05 2.4 2.65 4.88 5.16 7.82 7.22h-1.77c-2.84-2.02-5.9-3.43-8.46-5.84-1.35-1.18-1.7-1.45-3.5-.9-.7 2.25 1.55 4.9 2.67 6.73h-6.27c-.05-2.72-2.28-2.3-2.75 0h-5.47c5.44-6.7 9.84-14.08 12.02-22.48 2.35-7.6 3.8-15.18 2.9-23.15-1.47-4.16-3.9-7.82-4.3-12.42-.3-3.7-.88-7.32-2.4-10.75l-.83-.06-.3 3.72c-1.63-1.67-1.5-3.64-1.6-5.82-.15-4.03.67-7.9.83-11.9-1.4 1.66-1.13 3.73-1.6 5.82-.3 2.5-1.62 4.3-2.76 6.45-1.45 2.3-.83 5.65-1.86 8.1-1 1.7-2.83 3.04-4.37 4.26 1.77-5.98 4.98-12.32 4.94-18.6l-.9.07c-2.08 2.64-1.43 8.9-5.35 9.66-3.2.94-5.33 3.5-8.6 4 3.6-3.2 6.35-6.6 8.55-10.9-2.02 1.22-3.8 2.82-5.88 3.92-6.83 1.96-13.97 2.55-20.95.97-1.14-.22-2-.82-2.93-1.48 5.47-.1 11.03-.28 16.45-1.07 4.12-1.24 8.76-2.82 11.95-5.8 2.9-3.54 2.43-8.03-.72-11.25-2.06-.01-4.2.42-6.24.2-1.83-1.1-3.5-2.8-4.6-4.63-.66-2.55-.48-5.92.5-8.37 3.03-2.25 6.97-2.6 10-4.43-.87-1.56-1.25-3.48-3.48-3.2-2.67.58-5.13 1.84-7.85 2.3-1.62.42-3.75.5-5 1.7 2.64.2 5.27.06 7.9.22-2.1 2.25-7 2.78-9.98 3-3.98-.12-9.07.82-11.9-2.68 1.92-.07 3.8-.03 5.72-.2l-.1-.9c-2.24-.95-4.76-1.1-6.98-2.05-1.7-1.1-3-2.75-4.66-3.92-.6 2.37-1 4.7-.5 7.13 1.15 4.9.02 9.8 1.1 14.74.83 3.55-.01 7.06.37 10.57 2.07 2.35 4.38 4.2 5.7 7.15l-2.56.58c.02 5.14 1.86 10.12 1.48 15.36.16 5.83-1.83 11.15-2.23 16.9-.02.84-.38 1.56-1.07 2.16-.5-4.94-.7-9.9-.54-14.87.28-5.6-1.06-11-1.2-16.6H74.3c.06 6.57 1.53 12.6.33 19.33-.7 3.24-3 6.1-3.54 9.33-.42 4.45-.45 8.7 2.47 12.36 4.74 6.83 4.92 14.16 7.32 21.76.9 3.04 3.75 4.2 6.22 5.8h-6.2c-2.53-4.94-5.16-10.16-6.38-15.58-1.3-5.06-4.48-9.13-5.77-14.2-1.4-4.48-.6-8.83-1.58-13.42-1.28-5.54-1.65-11.15-2.13-16.8-.48-7.5 1.54-14.22 3.78-21.24 1.6-9.42 1.86-19.16 2.5-28.68.16-3.27 2.4-5.28 3.35-8.35.8-2.42 1.03-5.42 2.47-7.5.82-1.45 1.92-2.43 1.84-4.22.04-4.63-.77-8.77.67-13.32 1.25-5.1 4.1-9.23 5.98-14.08l5.5-10.6c1.18.36.95 2.53 1.38 3.54l1.2-.1c1.4-4.74 1.18-9.66 1.25-14.5-.44-4.04 4.6-6.13 5.2-10 .9-4.1 2.1-8.07 3.9-11.87 1.16-2.7 4.15-3.27 6.56-4.48 3.46-1.27 4.67-4.93 8.05-5.92 3.3-.96 6.4-1.66 9.2-3.78 2.84-2.15 6.15-1.46 9.13-2.9 3.23-2.2 4.2-6.13 8.1-7.84l12.34-5.63c4.22-1.5 7.68-4.94 11.17-7.83 2.72-2.27.8-6.86.5-9.85-.22-2.8-1.45-4.3-3.85-5.6l-.78 2.25c-1.76.8-2.43-1.72-2.93-2.95-.23-3.95-1.07-7.6-2.93-11.12l-.74-.3c.18 3.35 1.3 6.4 1.26 9.75l-.82-.3c-2.14-2.65-2.85-6.46-4.45-9.48-1.06-2-1.36-3.8-1.38-6.06.05-3.6-.6-6.87 1.62-9.94 1.54-2.2 1.75-4.5 1.7-7.1.55-4.44-4.2-7.06-5.47-11.3-.85-3.37-1.64-6.85-2.1-10.3-.38-2.74.42-5.74-.44-8.35-1.58-3.3 1.86-6.85.37-10.4-.2-.94-.98-2.2-.58-3.12 1.6-4.02 1.32-8.78.9-13-5.1-.37-7.12-6.98-3.23-10.2 3.65-.74 7-.8 10.32-2.73 2.24-3.66-.3-6.3-3.72-7.36-1.7.06-3.04.78-4.6-.13l1.33-2.15c-1.33-1.58-2.94-1.18-4.76-1.68-.34-.56-.58-1.2-.73-1.9-1.73-.76-4.6.02-4.9-2.34 1.9.13 3.75.4 5.64.53-.7-2.2-4.67-1.72-5.56-3.77-1.9-3.2-3.4-5.9-7.37-6.64-.45-2.26-1.36-4.73-.7-6.95-1.48-1.5-3.44-2.28-4.2-4.27 2.8-.03 8.2-1.1 9.1 2.64-1.64-.17-3.26-.44-4.9-.57l-.06.86c1.7 1.08 4.08.9 6.03 1.5.82.7 1.23 1.6 1.57 2.58-.8.6-2.27.94-2.57 1.96 1.4.2 2.82.34 4.2.58l.04 2.54c1.8.1 3.6.03 5.38.1-.7 1.72-2.24 2-3.7 2.93-.15 1.2 2.78.57 3.58.88-.42 1-.9 1.98-1.3 3 2.25.52 4.83.3 6.54 1.94 1 .86 2.6.94 3.85 1.33-.24 1.17-1.8 2.03-2.57 2.92 1.47-.01 2.93-.05 4.4-.25.02-.97-.2-1.97-.62-3 .94-1.54 4.15-1.6 5.8-1.94-.2 1.3-.64 2.64-.63 3.97.66 1.62 1.98 2.3 3.38 3.16-.47-1.3-1-2.6-1.4-3.92 1.86-3.42 6.7-4.04 8.73-6.68-2.97-.38-5.6-1.77-8.6-2-2.4-.3-5.2-.66-6.12-3.3 2.4-.08 7.8 2.05 9.33-.1-3-2.96-7.32-4.93-10.1-8.3-1.38-2.3-2.74-4.65-2.36-7.44l.85-.14c1.6 2.02 1.3 5.18 2.64 7.25 2.5 1.55 5.2 2.72 7.57 4.53 3.18 2.5 7.42 3.36 11.35 2.58.52-1.18.83-2.4 1.13-3.65-1.4 1.62-1.76 3.92-4.43 3.34-2.58-1-4.6-3.82-6.6-5.7-2.37-2.3-3.3-5.23-5.17-7.87-.9-1.43-2.24-2.82-2.18-4.62.5-3.8.7-7.37 3.58-10.2-2.64-1.38-9.08-1.55-11.5.5-.47 3.8-.12 7.8-.36 11.64l-.77-.3c-1.1-2.74-1-6.13-1.7-9-1.7-.77-3.3-1.55-5.12-.6.62 1.66 2.64 2.66 3.24 4.38.7 2.88.34 5.98 1.07 8.88.92 3.86 3.5 6.78 5.27 10.5-5.45-4.54-7.9-10.75-9.36-17.5-.44-2.38-3.53-5.4-6.03-3.94-.6 1.15-1.1 2.36-1.7 3.52-1.16 2.4-4.23 3.66-5.4 5.97.86 1.38 1.83 2.7 2.6 4.13-2.97.3-5.92.18-8.9.33-3 .01-4.85 4.98-7.88 4.56-2.07-2.68-1.27-7.32-1.64-10.54l-3.35-.68c-.26-.9-.05-1.5.65-1.8 2.44-1.45 4.7-3.1 7.06-4.67.56.43 1.14.76 1.73 1 1.2-2 2.13-4 4-5.48 3.63-3.06 6.67-6.63 9.95-10.05.65-.6 1-1.4 1-2.36-3.3-.67-6.23.1-9.48.45 1.55-1.53 3.48-2.3 5.5-3 4.16-1.5 8.07-.33 11.6-3.54z" class="C"/><path d="M157.6 41.23c1-.9 4.7-.3 3.9 1.5-.73.46-4.2-.4-3.9-1.5zm9.18 4.9c-1.25 4.1-3.87 7.33-4.82 11.47l3.07-.4c-.6.85-1.3 1.6-2.1 2.24-1.23-.34-3.9-1.43-2.55-3.06 2.6-3.17 3.84-7.1 6.4-10.24zm-34.58 3.15c1.6.18.93 2.33-.35 2.5-1.52-.2-.82-2.3.35-2.5zm164.08-.16c2.72-.58.9 2.5-.58 2.52-1.56-.35-.45-2.22.58-2.52zm-123.04 3.14c.5.5.5.5 0 0zm-55 .84c2.92-.6.84 3.16-.88 1.73-.33-.73-.03-1.3.88-1.73zm59.7-.23c1.8.38 1.9 3.5 2.1 4.97l-2.34-2.56c-3.6 3.52-4.95 9.44-8.76 12.7.66-4.58 3.35-7.54 5.36-11.66.9-1.47 1.57-3.5 3.64-3.45zm15.2 2.53c1.4-1.02 2.7 1.35.9 1.73-1-.27-1.3-.85-.9-1.73zm105.18-.2c2.43.17 3.98.7 5.47 2.7-1.6-.36-6.3-.04-5.47-2.7zm-61.08 3.1c1.82-.05-.77 4.97-1.93 4.2-.66-1.1.7-3.93 1.93-4.2zm-110.9.8l.72-.4.73.4v.8l-.72.4-.72-.4-.01-.82zm43.64-.07c-.4 1.76-1.85 6.78-4 6.67.01-2.5 2.25-5.02 4-6.67zm8.84.37a18.64 18.64 0 0 1-.1 2.25c-.87.48-1.8.88-2.76 1.2.74-1.5.62-3.85 2.86-3.46zm1.32.07c1.65-.43 1.66 2.45.02 2.06-.72-.67-.73-1.36-.02-2.06zm100.16.83c1.65-.97 2.55 1.1 1.24 2.16-1.65.93-2.37-1.08-1.24-2.16zm15.4 2.65c1.15 1 1.8 3.5 3.64 2.82l.26-2.73c1.1 0 2.8-.22 3.54.76 1.84 1.9 3.87 3.5 5.84 5.25.75 1.7.35 5.23 1.97 6.14.72-.64 1.17-1.63 1.34-2.98 1.85.66 2.93 1.9 4.08 3.4 1.57 2.1 3.62 3.65 5.38 5.56-1.12 2.86-1.5 5.64-1.93 8.66-2.68.54-5.57.55-8.18 1.34l-.2 2.58c-.85.62-1.92 1-2.88 1.42l1-2-1.93-.44-.44-1.73c-1.6.32-3.8.57-4.96 1.8l3.5.2c-.95 1.6-1.07 2.98-1.2 4.78-1.77 1.14-3.8 1.92-5.7 2.78 1-1.85 3.26-3.92 2.9-6.1-2.06.22-7.52-1.2-7.42 2.14l4.64-.47-.14.68c-2.4 2.12-5.32 5.08-8.66 5.27-1.67-2.13-3.1-4.3-5.12-6.17 1.28-1.7 3.4-2.4 4.6-4.28 2.52-3.96 5.63-6.42 7.15-10.94.87-3.07 1.44-6.35 1.37-9.56l-.92.07c-2.46 3.6-1.17 8.9-4.6 11.46-3.1 3-4.8 6.8-8.6 9.2.52-1.76 1.08-3.1 2.47-4.36 3.4-2.95 4.5-8.34 5.64-12.52.85-4.5-1.6-7.14-3.1-11.02 1.1-2.5 4.67-1.5 6.67-1zm-71.48.32c.47.48.47.48 0 0zm-49.25.9c-.7 2.62-1.54 4.2-3.9 5.62.9-2.18 2.07-4.1 3.9-5.62zm110.46 1.2c1.34-.78 2.38.05 3.5.76-.44 2.33-2 1.12-3.64 1.23-1.45 1.92-2.18 4-4.22 5.43.37-3.14 1.87-5.53 4.36-7.42zm-109 2.78c1-1.23 3.38.17 1.5 1.17-1.17.1-1.67-.3-1.5-1.17zm35.83.15c.5.5.5.5 0 0zm77.76-.08c.2 2.42-.27 3.23-1.86 4.97-2.9 3.06-3.74 6.5-7.2 8.5.3-1.26.6-2.17 1.56-3.1 2.56-2.7 3.95-5.96 5.96-9.03.38-.74.9-1.18 1.53-1.34zm-31.38.78l-.83 4.65 4.03-.4c-1.58.98-3.3 1.8-4.77 2.94-.25 3.3 3.18 1.1 4.92 1.06-1.03 1.83-3.93 1.35-5.75 1.87-.53 2.43 3.03 1.34 4.5 1.93-.54 2.1-5.1.96-4.42 3.8 2.84.33 4.86-1.4 7.38.47.86.8 5.1 1 4.15 2.63l-4.07-.57c1.35 2.16 4.4 2.33 6.13 4.33-1.74-.28-3.7-.48-5.28-1.32-1.95-1.33-3.2-2.98-5.63-3.4-5.54-1.03-11.18-.5-16.76-1.5-1.08.65-2.07 1.5-3.08 2.24l-1.56-4.37c-1.86 1.25-2.9 3.4-4.7 4.63-3.4.77-7.08.62-10.56.57-.03-1.7 1.44-3.96 2.44-5.35l.34 2.6c1-.57 1.07-2.1 2.07-2.7 2.18-1.2 4.53-1.96 6.65-3.3-.33-1.04-2.06-1.36-2.9-2l.14-.74c3.13-1.65 6.78-2.48 10.03-3.97 1.8-.48 5.74-2.2 7-.17-1.3 2.05-7 1.53-7.07 4.6 4.46-1.28 8.08.08 12.46.58-.46-1.28-1-2.47-1.25-3.8 1.3-.42 2.65-.74 3.95-1.2.85-1.36 1.56-2.8 2.42-4.15z" class="B"/><path d="M302.3 70.14c3.03 3.76 3.26 9.6.33 13.47-2.1 3.05-4.92 6.05-8.4 7.48 1.63-3.54 5.08-4.86 6.3-8.57.95-4.05.95-8.3 1.78-12.38z" class="C"/><path d="M215.3 72.34c.73-.52 1.4-.45 2.06.2 1.03 1.35-1.06 2.77-2.22 1.98-.5-.7-.44-1.4.16-2.17zm-10.13.86c2.07-.01 5.28-.76 6.8.96-.25 1.2-.6 2.37-1 3.52-2.03-1.35-3.97-2.88-5.8-4.48zm83.9.98l.8-.02.42.72-.4.73-.82.02-.4-.72.4-.73zM181.2 75.2c.77 1.86 1.36 3.7 1.4 5.73 3.44-.9 6.75-2 10.33-2.23 2.8-.17 5.26-.96 7.83.54 1.6.94 3.95 1.5 4.4 3.5-1.92-.12-3.8-.44-5.7-.65l.03.57c2.93.27 5.42 1.2 7.9 2.77l.16 1.17c-3.7 1.17-5.9 1.37-9.6.2-2.58 1.62-4.95.72-7.72 1.6 1.2.88 2.8 1.48 3.75 2.63-3.3.9-5.18-.53-8.06-1.66-2.37.26-4.66 1.15-7.02 1.43-1.5-.01-3.14-1.72-4.66-1.18-1.42 1.03-2.48 2.55-3.78 3.73-.94.24-2.05-.24-2.97-.47.82-1.27 1.7-2.45 2.3-3.85-1.27-.55-3.83.32-3.4-1.74l3.97.63c.12-1.68-.73-3.37 1.32-4.17 2.1-1.1 7.6-1.9 8.08-4.56-1.1-.42-4.7.25-4.77-1.18 1.78-1.43 4-2.28 6.2-2.8zm100 .04c1.62.1.82 2.34-.34 2.57-1.56-.1-.76-2.33.34-2.57zm-90.8 1.66c-1.1 1.33-3.7 1.06-5.3 1.2-.6-2.95 3.83-2.27 5.3-1.2z" class="B"/><path d="M236.27 76.1c.9-.4 1.68-.38 2.3.07.77 1.42-2.22 2.57-3.13 1.7-.34-.65-.07-1.24.82-1.77z" class="C"/><path d="M205.6 78.2c1.07-.7 3.66-.24 4.13 1.06.12 2.06-4.77.28-4.13-1.06zm83.25 1c-.8 2.2-1.28 3.97-3.68 4.85.88-2.08 1.95-3.43 3.68-4.85z" class="B"/><path d="M159.8 81c.5 2.84-2.92 1.65-4.68 2.02-.01-1.6 3.5-1.73 4.68-2.02z" class="C"/><path d="M277.18 81.1l.72-.42.73.4.01.82-.72.42-.73-.4-.01-.82zm-70.9 2.18c.53.5.53.5 0 0zm4.9.2c1.2-.75 2.46 1 1.66 2.03-1.2.75-2.5-1-1.66-2.03zm70.1-.34c2.73-.73.98 2.45-.5 2.6-1.56-.2-.38-2.25.5-2.6zM235.3 87.1l.7-.44.75.37.05.8-.7.44-.75-.36-.04-.82zm-36.93 1.94c1-1.22 3.43.2 1.54 1.18-1.2.08-1.7-.3-1.54-1.18z" class="B"/><path d="M247.24 90.06c1.78-.46 2.45 1.55.76 2.28-1.78.34-2.4-1.5-.76-2.28zm-61.38 1.14l4.97 3.77c-.85.52-1.73.82-2.63.9-1.3-.6-1.9-2.9-3.35-2.94-3.9-.22-8.16 1.72-11.96 2.6a26.51 26.51 0 0 1 .93-1.75c4-.92 8.04-1.5 12.04-2.57zm70.7.82c-1.06 1.08-3.08.85-4.5 1.23.57.9 1.92 1.28 2.85 1.74l-3.07-.1c-3.3-.17-7-.83-9.9 1.1-2.7 1.78-5.96 3.88-6.75 7.24-1.48 5.2-1.57 11.65.96 16.54 2.36 2.58 5.7 5.06 9 6.25 4.8.78 10.32.98 14.85-1.06 2.2.3 2.93.12 3.86-1.97 2.2-2.78 4.83-5.3 5.1-9.05.37-3.42-.8-7.88-3.87-9.83-3.7-2-5.1-5.4-7.88-8.27 2.8 1.14 5.45 2.1 7.43 4.5 1.94 2.43 5.6 4.26 5.35 7.64.1 3.13.34 6.54-.47 9.6-1.42 3.47-4.18 6.5-6.9 9.03-2.13 1.9-4.94 1.63-7.6 1.7-3.96-.17-8.15.2-11.72-1.62-2.3-1.13-5.04-2.24-6.8-4.15-1.65-2.52-2.7-5.5-3.68-8.35-1.74-5 .28-10.38 2.45-14.9.6-1.4 4.04-2.64 3.54-4.17-8.1-1.17-16.42-.02-24.84-.22-4.36.37-9.46 1.24-13.7 2.28-.13.9-.22 1.8-.3 2.72-.3 1.9.55 2.57 2.3 2.8 3.13 4.8 2.3 10.6 1.28 15.9-1.7 7.26-7.5 12.53-14.64 14.25-3.8.3-7.8.42-11.55-.23-3.6-1.62-6.7-4.77-9.38-7.6-1.1-1.36-2.5-2.25-2.57-4.13-.24-3.3-.52-6.95.35-10.17 2.77-4.9 7-9.42 12.2-11.74 7.43-1.76 14.66-1.86 22.1-2.6 2.64-.24 4.3-2.2 6.95-2.06 4.4.14 8.56-1.3 12.95-1.18 10-.46 19.84.8 29.82-.24 2.03-1.68 4.48-2.56 6.8-.87z" class="D"/><path d="M274.28 91.25c2.5 1.05-1.7 3.36-1.84 1 .34-.67.95-1 1.84-1zm40.28 1.05c1.13-.64 3.9-.8 5-.06.78 1.42-5.6 1.28-5 .06z" class="B"/><path d="M184.27 94.3c2.6 1.22-2.8 3.98-3.13 1.67.3-1.2 2.03-1.73 3.13-1.67z" class="D"/><path d="M163 94.97c1.3 1.13 1.6 1.98 1.64 3.68-1.12.07-2.24.08-3.36.02-.1-1.6.54-2.66 1.72-3.7z" class="B"/><path d="M251.86 94.9c1.23.97 3.46 1.82 4 3.35-2.86-.07-4.85-2.42-7.9-2.15-5.62-.5-12.5 4.9-12.26 10.8 2.4-1.68 3.48-8.12 7.77-6.55l.67 2.18c1.6-.18 3.1-.57 4.74-.32 1.4.01 2.64.68 3.8-.27-.85-1.04-1.7-2.05-2.5-3.12 1.6-.13 3-.5 4.46.32 3.7 1.8 6.73 4.3 10.2 6.4l.28-1.43c3.07 1.95 4.24 6.4 3.87 9.83-.27 3.74-2.9 6.27-5.1 9.05-1.86.05-3.02.1-3.86 1.97-4.53 2.04-10.04 1.84-14.85 1.06-3.3-1.2-6.64-3.67-9-6.25-2.53-4.9-2.44-11.33-.96-16.54.8-3.36 4.04-5.46 6.75-7.24 2.92-1.92 6.62-1.26 9.9-1.1z" class="C"/><path d="M251.86 94.9l3.07.1 2.3.85c2.78 2.88 4.17 6.27 7.88 8.27l-.28 1.43c-3.46-2.12-6.48-4.6-10.2-6.4-1.47-.8-2.87-.45-4.46-.32.8 1.07 1.66 2.08 2.5 3.12-1.16.95-2.4.28-3.8.27-1.63-.25-3.13.14-4.74.32l-.67-2.18c-4.3-1.57-5.38 4.87-7.77 6.55-.24-5.9 6.64-11.3 12.26-10.8 3.05-.27 5.04 2.08 7.9 2.15-.54-1.53-2.77-2.38-4-3.35z" class="B"/><path d="M194.83 98.97c2.8 1.14 5.03 3.27 6.2 6.08 2.5 5.32 3 11.7-.02 16.92-1.87 3.78-4.78 6.85-8.82 8.25-5.46 1.35-11.32 1.2-16.2-1.9l.9-1.3c-2.13-3.63-6.42-4.33-6.9-9.1-.95-4.5 2.74-8.58 6.04-11.1l.68.23-.25 2.9c2.44-.95 5.46-1.98 7.26-3.96-.4-1-.6-1.96-.55-2.9 2.2-.24 4.38-.23 6.58-.4l.02-.84c-4.76.02-11.84-.26-15.23 3.7-3.58 3.26-6.5 7.3-5.77 12.4.25 2.12 2.26 4.5 1.28 6.5-2.5-3-4-6.35-3.07-10.3 2.34-5 4.93-9.56 10.07-12.1 5.47-3.2 11.5-4.46 17.77-3.1z" class="C"/><path d="M224.2 99.22c.52.52.52.52 0 0zm-24.24.68c1.66.33 2 1.32 2.3 2.8-1.76-.24-2.62-.92-2.3-2.8z" class="B"/><path d="M280.68 101.2l.06 1.6c-2.5.24-5 .27-7.5.14.98-1.65 5.55-1.37 7.45-1.73z" class="D"/><path d="M189.78 101.86l-.02.84-6.58.4c-.05.93.14 1.9.55 2.9-1.8 1.98-4.82 3-7.26 3.96l.25-2.9-.68-.23c-3.3 2.5-7 6.6-6.04 11.1.48 4.78 4.77 5.48 6.9 9.1l-.9 1.3c-2.32-1.05-4.53-1.5-5.93-3.85.98-2-1.03-4.38-1.28-6.5-.72-5.1 2.2-9.15 5.77-12.4 3.4-3.97 10.47-3.7 15.23-3.7zm17.4 1.34c1.8 2.35 1.97 8.2.15 10.7.12-3.6.02-7.13-.15-10.7z" class="B"/><path d="M154.95 104.95l.6.37c.3 2.82 1.27 5.2 2.3 7.82-1.14-.1-2.24-.32-3.3-.65-1.04-.95-.82-6.8.38-7.54z" class="D"/><path d="M216.72 105.45c.66.9.86 5.16 2.3 4.4l.17-3.68c1.62 1.66 3.24 3.12 2.92 5.7-.75 3.44-1.04 6.54-1.06 10.06h-.9c-.2-2.53-.14-5.14-.18-7.68-.66.45-1.34.87-2.02 1.26l-1.58-.65c-.54.23-1.06.55-1.57.94.15-1.62 1.1-2.7 1.95-4-.23-1.63-2.57-5.8-.01-6.34z" class="B"/><path d="M162.74 106.23l.2 1.68c-1.65.92-4.17 1.22-5.74-.02.03-1.98 4.22-1.67 5.55-1.66z" class="D"/><path d="M225.22 107.32a9.87 9.87 0 0 1 2.12 1.16c.25 4.67 1.5 8.16 3.36 12.36-4.16-2.1-5.35-9.3-5.48-13.52zm9.98 2.1c1.24-.56 1.45 4.8.01 4.12-.73-.98-.65-3.1-.01-4.12z" class="B"/><path d="M282.37 110.32l2.5-.2a20.55 20.55 0 0 1-.24 2.5c-.78.1-1.57.17-2.37.2l.1-2.48z" class="D"/><path d="M213.14 112.25l.82-.02.43.72-.38.74h-.8l-.43-.7.37-.74z" class="B"/><path d="M150.33 115.3c2.64-1.4 2.17 3.38-.15 2.3-.55-.75-.5-1.5.15-2.3z" class="D"/><path d="M284.26 115.28c.5.48.5.48 0 0zm-70.46.92c.36 1.6.35 3.03.02 4.65-.8.18-1.66.12-2.55-.18-.03-1.7-.17-5.45 2.53-4.47zm-60.4 1.92c1.46-.95 2.57 1.55.75 1.8-.96-.34-1.2-.94-.75-1.8zm64.83 1.3c.66.01.96.87.92 2.57.1.68-.14 4.12-1.22 2-.2-1.4-.38-3.3.3-4.58z" class="B"/><path d="M284.02 119.28l.82.01.4.73-.4.72-.82-.01-.4-.72.4-.73zm-133.84.92c2.56-1.4 2.2 3.34-.08 2.35-.6-.75-.58-1.53.08-2.35z" class="D"/><path d="M263.87 123c-.93 2.1-1.65 2.27-3.86 1.97.84-1.88 2-1.92 3.86-1.97z" class="B"/><path d="M152.95 126.04l-1.13 1.15c-.7-.68-1.08-1.42-1.1-2.23.96-2.1 2.32-.57 2.24 1.08z" class="D"/><path d="M152.95 126.04c.54 1.15 1.44 1.83 2.34 2.66.64 2.3.27 4.95.36 7.32-.1 3.02.77 5.9.68 8.94l3.24-1.95c-.36 1.4-2.05 2.5-.17 3.4l-3.75 2.7c1.42 2.63 4.37-.5 6.24-1.1-.93 2.67-3.22 2.43-5.25 3.94 1.17 1.45 2.53 1.32 4.18 1.6-.6 2.67-1.23 5.37-2.2 7.92l-1.42.33c-2.07-3.9-2.22-8.06-4.14-11.94-.56-1.27-1.3-2.52-1.65-3.86.32-3.26 1.37-6.3 1.13-9.62.26-3.47-2.02-5.73-.72-9.23l1.13-1.15zm129.5.93c1.84.5 1.94 2.5 2.58 4.04 1.2 4.82 4.2 9.27 4.04 14.17-.13 1.77.46 3.3 1.04 4.94v.78c-.05 1.6-.12 3.2-.1 4.82l2.9-.14c-1.43 1.92-3.22 3.1-3.85 5.55-1.16 2.9-1.82 7.38-4.83 8.88.27-4.13 1-7.65-.7-11.63a41.55 41.55 0 0 0 1.67-1.58c.43-4-.54-8.2-.94-11.84.23-3.35 1.27-6.4.87-9.9-.82-3.05-3.2-4.7-2.67-8.1zm-118.43 1.36c2.03 1.65 3.73 3.4 6.1 4.6 2.52 1.4 5.56 2.13 7.65 4-2.1-.22-4.13-.6-5.97-1.74-3.06-1.93-6.05-3.53-7.77-6.86zm3.38-.1c.98-.77 2.85.44 2.2 1.64-.97.82-2.84-.45-2.2-1.64z" class="B"/><path d="M286.06 128.27c1.6-1.15 2.52 1.12.72 1.64-1-.18-1.25-.72-.72-1.64z" class="D"/><path d="M209.9 133.2c3.46.07 4.95 3.02 8.48 2-.35 1.05-1.26 2.27-1.03 3.4 2.23 1.04 2.37-1.28 4-2.26 3.94-2.2 6.82-4.86 11.5-2.45l-1.75 2.3c4.67.3 8.96.52 12.82 3.52-5.75-1.98-10.62-2.75-16.7-1.54.63 1.5 1.14 1.8 2.78 1.76 2.97.1 5.74-.97 8.28.8 1.33.72 2.13 1.82 2.9 3.07-3.36-1.6-6.08-3.3-10-2.8.57 2.13 3.57 1.77 5.3 2.52 2.57.56 4.02 2.32 5.32 4.45-2.38-.52-4.68-1.34-7.05-1.9l-.37 1.8c-2.16.33-4.58.04-6.64.75-1.1 1.3 1.8 2.17 2.2 3.34-3.2.36-4.9-1.28-7.26-3l-.07 1.97c-2.5-1.1-5.2-1.9-7.6-3.23-.4-1.4-.23-2.97-.32-4.42-.73.26-1.44.56-2.13.9.32 1.2.74 2.33 1.02 3.55-1.92 1-3.87 2.05-5.9 2.82-1.5.12-2.98.1-4.47.3.5.62.84 1.27 1.04 1.95-1.2.83-2.5 1.53-3.83 2.18l.02-2.06c-2.08 1.4-3.25 2.76-4.43 4.97 1.27-.73 2.47-1.5 3.9-1.9-.53 2.27-1.9 4.15-2.5 6.37-.47 1.08-.36 3.07-1.45 3.66-3.72-3.34-2.24-7.45-.32-11.3 1.96-2.43 4.67-4.26 6.9-6.47l-2.15-.42c.88-2.62 2.74-3.13 4.5-4.88-3.3-.5-5.85.82-8.84 1.85 2.07-2.5 4.7-2.37 7.6-3.2a18.01 18.01 0 0 0 .03-2.32 9.72 9.72 0 0 0-1.86-1.03c-4.33.9-7 3.6-10.66 5.7 1.07-1.43 2.48-2.48 3.66-3.8 1.37-2.64 4.43-3.6 6.76-5.58 2.68-.6 5.54-1.35 8.3-1.4zm56.96-.2c-.86 1.37-1.67 2.65-3.08 3.52-.8-.23-2.32-.43-2.54-1.4 1.75-1.03 3.66-1.67 5.62-2.13z" class="B"/><path d="M288.13 133.17c1.42.12 1.55 2.32.1 2.5-1.35-.24-1.5-2.2-.1-2.5z" class="D"/><path d="M244.93 134.32c1.02.4 2.38.64 3.13 1.46.9 1.5 1.1 3.68 2.78 4.4 3.36 1.4 7.54 1.24 11.13 1.8 3-.22 4.2 4.2 5.76 6.2-2.8-1.45-4.14-3.9-7.53-4.13.7 2 2.43 2.57 4 3.8 2.18 1.4 3.2 3.73 4.9 5.74l1.77-.9c.46 2.88 1.18 5.7 1.86 8.53-2.18.01-2.1-4.1-3.47-5.43-3.64-3.7-8.97-6.14-13.67-8.2-3.6-4.4-7.3-8.62-10.65-13.2zm5.42 1.05l7.54-.14c-2 1.38-5.08 1.3-7.44 1.56l-.1-1.42zm17.8-.1c1.17-.2 2.3 1.17 1.6 2.22-1.44.98-3.67-1.35-1.6-2.22z" class="B"/><path d="M207.6 135.98l5.18.27c1.2 2.8-2.03 2.73-3.87 2.66-.5-.95-.9-1.94-1.3-2.93z" class="C"/><path d="M166.23 137.08l.73-.4.72.4v.8l-.73.4-.73-.4.01-.8zm2.97.22a14.17 14.17 0 0 1 2.34.85c.04.5-.34 1.06-1.15 1.7 2.1.64 4.17 1.2 6.14 2.2-.47 1.23-1.23 2.48-1.43 3.78 1.43.33 3.15-2.27 4.4-3.03l-1.27 3.28c1.8-.48 3.06-2.4 4.77-3.15 1.94-.84 4-1.4 6.08-1.8-1 2.12-4.2 2.43-5.16 4.9-1.65 3.94-7.77 3.3-9.43 7.45-1.38 2.83-2.95 4.96-5.2 7.14l-.5-2.34c-2.2-1-3.38 2.28-4.47 3.66.3-1.28.57-2.58.8-3.88-1.08.44-2.15.94-3.2 1.43 1.12-1.86 3.27-4.08 3.18-6.33-1.27.2-2.2 1.66-3.13 2.47.56-1.43.96-4.3 2.47-4.96 2.58-.6 4.8-1.7 7.07-3.02a6.91 6.91 0 0 0-1.8-1.37c-.4-1-.1-2.3-.2-3.36-1.64.38-2.8 2-4.2 2.94a75.09 75.09 0 0 1 3.9-8.57zm4.08 1.8l.72-.42.74.4.01.8-.72.4-.74-.4-.01-.8z" class="B"/><path d="M210.42 140.1c.95-.95 4.7-.54 4.42 1.22-.9.2-4.64.06-4.42-1.22zm7.84-.04c1.78-.46 2.54 1.54.76 2.23-1.77.33-2.45-1.45-.76-2.23zm-.83 3.1c.94-.95 3.4-.83 3.6.74-.3 1.85-4.44 1.13-3.6-.74zm11.87 1.2c1.1-.97 4 1.02 3.2 2.38-1.12.8-4.16-.93-3.2-2.38z" class="C"/><path d="M246.26 145.27c.5.5.5.5 0 0z" class="B"/><path d="M290.14 145.12c1.75-1.25 2.8 1.65.8 2.08-1.1-.3-1.36-1-.8-2.08z" class="D"/><path d="M209.32 146.1c3.1-.66.72 3-1 1.7-.27-.68.07-1.25 1-1.7zm8.08.22c1.68.2 4.86-1.2 4.35 1.6-1.5.12-3.02.12-4.53.02l.18-1.62zm6.87.73l.74-.4.7.43v.8l-.73.4-.7-.43.01-.8z" class="C"/><path d="M247.36 147.05l.7-.4.73.4v.83l-.72.4-.72-.4v-.82zM251 147c5.4 2.9 11.85 4.74 15.94 9.08.6.6.93 1.28.96 2-2.4-.5-4.12-2.12-6.68-2.1 2.36 2.24 5.25 2.65 6.64 5.94l-2.7-.48c.4.7.85 1.38 1.16 2.12-.3.46-.58.94-.86 1.4 2.33 2.5 5.3 2.75 4.53 6.97-1.8-.44-3.44-1.75-5.02-2.7 1.46 2.3 3.35 4 3.84 6.6-1.16-.2-2.3-.48-3.44-.73.63 1.13 1.34 2.08 1.33 3.44-.05 2.3 2 3.7 3.05 5.74.47 2.14.3 4.47.14 6.64-1.83-1.87-2.45-4.7-3.92-6.9l-.76.14c-.33 2.46.02 4.6-1.27 6.84-1.28-.87-2.45-1.86-3.66-2.83.38 2.12.8 4.17.83 6.33l-.68.16c-.74-1.52-.63-2.97-2.43-3.62.12 2.2 2.76 6.1.9 7.83-1.85.15-1.8-6.58-3.85-5.64-.16 3.7.5 5.23 2.96 7.9-.86 1.77-2.02 2.08-3.73 2.66-.18 1.27-.2 2.56-.32 3.83l-.68-.07c-.47-2.82-.5-4.65-2.94-6.5l.87 4.73-2.07-1.6-.06 2.6a17.69 17.69 0 0 1-2.32-1.64c.05 2.83.2 5.66.18 8.5l-.73-.04c-.1-1.82-.08-3.65-.18-5.48-1.88.32-1 6.37-3.83 6.63-1.2-1.05-.3-3.07-.37-4.5-1.2.17-1.9.95-2.9 1.57-.2-3.06.12-6.7-2.74-8.68-.14 2.16.15 3.44 1.08 5.36.01 3.1-1.86 6.57-2.46 9.5-.24 2.88-.38 5.76-.8 8.63 2.07-1.1 3.22-1.37 5.55-1.32 1.05-1.17 1.83-2.63 3-3.68 2.2-.44 4.45-.74 6.66-1.2-1.36 1.5-2.73 2.96-3.96 4.57 5.87-1 7.27-7.2 11.02-10.9 2.44-1.06 3.4 1.68 3.4 3.56-2.52 1.92-3.12 4.63-4.66 7.23-1.24 1.88-.82 4.6-1.3 6.77a9.42 9.42 0 0 1-2.2 1.39c-.1-1.4.53-3.36-.42-4.5l-3.5 1.3c-.93 2.14-.54 6.83-2.5 8.07-.4-2.1.48-6.77-1.93-7.77-.55 3.27-.13 7.58-2.1 10.36-1.17-1.63-.98-3.8-2.23-5.43-.87.73-1.05 2-1.78 2.88-.6-1.24-.5-4.4-1.93-4.8-.1 1.5-.12 3-.2 4.48l-3.76-2.35.67 4.38c-1.9-.78-3.78-2.4-5.8-2.64.1 1.62.4 3.12 1.6 4.3 1.63.65 3.3 1.07 4.92 1.76-.24 1.4-.1 4.48-1.52 5.1-3.5-1.26-6.85-2.78-10.47-3.68-1.87-.6-4.28-1-5.76-2.34-1.14-.85.07-2.48-.48-3.52-2.8-.94-4.8-2.8-7.17-4.46l1.5 4.08c-3.3.18-4.45-3.15-6.67-5.05l-2.04 1.67c-1.3-1.3-2.5-2.52-4.07-3.46-1.26-.55-1.4-3.48-2.86-3.2.05 1.25-.18 2.96.57 4.02 3.66.5 4.1 2.5 6.13 5.06 6.5 1.4 12.6 5.08 17.64 9.33 2.33 1.73 5.3 2.7 7.56 4.48l.04.73c-6.15 2.53-10.45 9.62-15.12 14.02-2.26-.64-4.3-2.24-6.3-3.4-3.93-2.63-7.9-4.3-10.87-8.13-5.03-5.33-9.57-11.05-14.78-16.22-3.04-2.83-3.3-6.34-5.2-9.84-.6-1.5-2.06-3.1-1.1-4.73 1.4-2.34 3.37-4.24 4.76-6.6a19.46 19.46 0 0 0 .2 2.53c2.16 1.78 3.8 4.37 6.34 5.55 3.3 1.37 3.44 4.5 5.9 7.02-.2-1.9-.88-3.88-.68-5.76a26.1 26.1 0 0 0 1.58-2.4c-.46-2.98-1.66-5.53-1.53-8.64 4.54-.7 6.56 2.44 10.7 3 3.04.26 5.06 3.88 7.67 4.63.16-1.43.42-2.6 1-3.9-1.1-1.68-2.5-3.07-3.22-5 3.8 3.2 6.12 6.95 11.1 8.74 1.74.76 2.83-.62 4.35-1.28-.12 2.16-.38 4.3-.28 6.5 2.52-.25 4.33-1.58 6.53-2.65.92 1.34 1.65 2.8 2.56 4.13 2.92 1.18 4.54-3.87 5.1-5.87 2.23-5.15-2.83-7.77-.3-13.03 2.05-2.1 1.56-4.42 1.55-7.1l-.72-.12c-.14 1.74.14 3.7-.42 5.37l-2.13 1.1c-.45 2.57-.6 5.45-.55 8.06.48 1.04 2.3 2.24 1.12 3.38-1.13 1.62-2.6-.73-3.43-1.54-.52.3-1.05.52-1.6.67-.66-.68-1.28-1.4-1.92-2.1l-.67 3.4c-2.8 1.34-2.44-2.18-3.5-3.76-1.3-1.96-2.83-4.15-4.8-5.47l-.54 2.94c-2.7.73-5.45-2.32-7.08-4.04-2.2-2.8-7.04-2.47-10.07-3.9-1.24-.98-2.36-2.1-3.57-3.1.52 2.8 2.6 4.48 3.6 7.07.6 1.36 1.1 2.86 1.9 4.12 1.16.54 2.36.97 3.5 1.53a16.96 16.96 0 0 1 .94 1.97c-3.8-.75-7.2-3.4-9.45-6.47-.96-2.66-1.78-5.3-3.22-7.76-.62-.83-1.12-2.68-2.32-2.66.4 3.63 1.96 6.54 2.83 10.03-1.45-.3-2.27-.58-3-1.96-2-3.1-1.82-6.4-3.05-9.7l-.7-.34c-.04 1.98.08 3.95.05 5.93l-.75-.4c-2.37-4.28-2.82-8.65-2.5-13.46-1.5 1.82-2.63 3.87-4.02 5.76l-.87-.01c-.9-3.87.1-7.26.76-11.04-1.22 1.28-2.34 2.6-3.6 3.82-1.95-4.55 1-10.38 4.15-13.67 1.1-.53 6.16.68 6.6 1.87-.98.7-2 1.32-2.96 2.02 1.5.7 3.08.94 4.68 1.24-.43.64-.88 1.27-1.33 1.9 2.17.9 4.3 1.27 6.6.72.8-1.78-.35-4.65-1.25-6.3l-3.1-.96-1.06-2.1c-3.1.48-5.77.26-8.88.13-3.2 2.7-3.38 6.6-5.92 9.6l.4-3.98c-1.74.8-2.7 3.24-3.94 4.67-.42-3.92-.05-7.75 1.38-11.43.8-2.32 2.3-4.78 2.28-7.23a9.92 9.92 0 0 0-2.32.18c-1.56 1.72-2.4 5.74-4.54 6.5.13-3.46 2.3-5.3 4-8.04 1.25-1.73.32-3.83 1.54-5.54a14.59 14.59 0 0 0 1.53 3.03c3.45-.8-.23-3.83 2-5.36 2.4-1.94 4.93-3.6 6.9-6.05 1.4-1.77 2.93-2.4 5.07-2.9-1.06 2.7-4.86 4.83-4.6 7.77.83.1 1.66.14 2.48.12 2.92-1.78 4.65-5.5 7.17-7.9-.23 4.5-4.48 5.53-5.16 9.58l2.27-1.24c.28 3.25-.57 6.3-.8 9.48.37 2.1 1.07 4.52 2.63 6.05-.22-1.58-.5-3.14-.8-4.7 2.42 1.4 4.27 3.48 6.54 5.05 3.1.65 6.17.68 9.18 1.9 3.04 1.2 6.12 2.7 9 4.27.5 2.3.24 3.7-1.37 5.4l-.42-2.6c-1.02.33-1.55 1.67-2.3 2.42-.94.4-2.12-.38-3.1-.52-.85.06-1.47.22-2.22-.3-1.52 1.1-2.3 1.9-4.32 1.9-1.73 1-3.26 2.4-4.86 3.6.46.77 1.37 1.72 2.3 1.07 1.9-1.15 3.93-1.2 6.06-1.54.78 1.3.63 2.86 2.5 2.96 2.58.42 2.43-1.64 3.4-3.33a13.11 13.11 0 0 1 .93.74c-.36 1.24-.86 2.43-1.27 3.65 4 .12 7.92 1.44 11.02-1.7.82.8.82 2.47 1.93 2.87 2.94-.5 5.8-.97 8.77-1.12 7.48-2 14.7-4.68 21.63-8.16-.5-1.23-3.4-1.2-4.5-2.35 2.37-.2 5.4.64 7.24-1.1 1.3-1 2.62-2.17 3.44-3.6.3-1.7.4-3.44.32-5.16l-1.76-.24c-.44-.98-.78-2-1.2-3-.98.6-2 1.75-3.18 1.83-1.5.52-2.88-.47-2.5 1.76 1.85.2 3.7.23 5.55.4-2 2.27-4.32 1.13-6.9 1.02.96 1.6 2.86 2.06 3.87 3.54-1.44-.2-2.86-.54-4.3-.78l-.2 1.95c-1.53.25-3.1.3-4.6.64-.52.8-.23 2-.36 2.94-1.48-.1-2.96-.3-4.44-.37-.1 1.87 2.12 3.78 2.8 5.58-2.92-1.56-4.3-4.6-7.63-5.7.2 1.17.47 2.32.7 3.5-2.94-1.82-5.72-3.27-7.6-6.3-.12 1.4-.53 2.36-1.22 2.92-1.7-.9-2.43-2.43-2.96-4.18 1.1-1.7 2.63-3.4 4.45-4.3 1.65-.4 3.4-.5 5.02-1.03 1.34-.94 2.47-2.13 3.77-3.1 2.06-.17 4.16.18 6.23.04 1.54-.84 1.34-1.34 1.25-2.9-1.44-.24-2.6-.54-3.9-1.2-.76.4-1.5.87-2.2 1.43-.2-2.66-.24-5.3.2-7.94 2.6.6 3.04 4.1 5.72 5.06-.8-1.67-1.78-3.25-2.48-4.95l1.22-1.57c-.14-1.52-.85-3-1.26-4.47 2.36 1.2 3.65 4.3 5.66 5.3.83-.78 2.7-2 2.4-3.27-1.4-2.17-3.8-3.57-5.23-5.8 3.2 1.2 5.24 3.24 8.8 1.66.3-1.48-2.73-2.32-2.72-3.98zm-54.2.93l-2.87 7.96c-.74 1.86-1.8 4.22-3.83 4.94.67-3.2 2.57-5.92 3.44-9.1.55-1.95 1.45-2.9 3.26-3.8zm39.62.27c.85-.9 3.9.04 3.3 1.48-.8.58-3.63-.26-3.3-1.48z" class="B"/><path d="M172.62 148.9l-2.54 3.02 3.05-.48c-1.15 1.25-2.18 2.44-3.8 3.08-.63-.58-1.22-1.2-1.8-1.9 1.03-2.12 2.92-3.1 5.1-3.73z" class="C"/><path d="M232.46 148.83c.62.2 1.22.44 1.82.7 1.16 3.24 4.66 2.45 5.88 5.1-2.08-.8-4.15-1.28-6.32-1.75-1.3-.85-.78-1.36-.62-2.62l-.76-1.44z" class="B"/><path d="M290.1 150.12c1.3-.57 3.56-.3 2.7 1.6-.78.64-1.7.37-2.72-.83v-.78z" class="D"/><path d="M178.62 152.15c.7.73-2.55 4.16-3.32 3.46-.86-1.25 2.07-4.25 3.32-3.46zm65.54.13c.55.5.55.5 0 0z" class="B"/><path d="M245.1 159.27c1.44-.73 2.45 1.4 1.5 2.44-1.47.8-2.6-1.4-1.5-2.44z" class="C"/><path d="M224.24 160.23c2.02.66-.62 3.77-2 2.52-.8-1.28.77-2.56 2-2.52zm-21 .9c.95-.45 3.2.18 2.4 1.52-1.33 1.2-5.1.24-2.4-1.52zm24.5 1.87c-.77 2.27-2.57 3.3-4.1 5.03-.1 2.56.26 5.1.16 7.67l-1.5-.24c-.93-2.3-.73-5.3-.53-7.75 2.32-1.35 3.3-4.45 5.97-4.7zm3.47.24c1.68.17 1.4 2.6-.13 2.8-1.62-.27-1.3-2.5.13-2.8zm-25.06 1.26c1.83-.84 2.82 3.24.8 3.48-1.57-.23-1.83-2.5-.8-3.48zm3.9-.46c2.3.1 1.98 2.62 2.5 4.3.55 1.94-1.03 3.7-1.97 5.27-1.03-.85-2.03-1.56-2.2-3 1.12-.37 2.05-.9 2.8-1.6l-1.14-4.97z" class="B"/><path d="M257.8 164.4c2.75 2.52-.16 3.34-2.5 3.52.53-.94 1.23-3.55 2.5-3.52z" class="C"/><path d="M270.18 164.57c1.18-.46 2.18 2.34 1.53 3.1-1.46.64-2.46-2.2-1.53-3.1zm-37 .63c1.6-1.12 2.43 1.26.66 1.7-.97-.22-1.2-.78-.66-1.7zm-33.95.8c1.23.4 1.98 1.95 2.9 2.82.82-.36 1.8-1.63 2.7-1.3-.3 1.9-.63 3.72-.48 5.65-1.38-.24-3.1-.4-4.1-1.48-.6-1.82-.86-3.78-1-5.7zm26.03 2.2c.78-.68 1.52-.72 2.22-.15.85 1.24-.7 3.5-2.15 2.52-.62-.74-.64-1.53-.07-2.37zm-35.1 12.03c1.52-.2 2.35 2.54.7 2.97-1.85.15-2.37-2.26-.7-2.97z" class="B"/><path d="M194.04 181.24h.8l.4.72-.38.74h-.82l-.4-.73.4-.74z" class="C"/><path d="M222.16 184.56c1.52-.74 2.7 3.32.86 3.38-1.34-.33-1.78-2.43-.86-3.38zm21.27-.28c.9-.6 2.64.03 3.1.97.06 1.9-3.87.55-3.1-.97z" class="B"/><path d="M194.26 185.96c2.88-.8 1.75 3.12-.37 3.04-1.7-.4-.68-2.48.37-3.04z" class="C"/><path d="M213.15 186.12c1.85.22.8 2.7-.7 1.8-.5-.85-.26-1.44.7-1.8zm12.32 2.96c1.46-.96 2.62 1.5.77 1.76-.97-.32-1.23-.9-.77-1.76zm40.93 1.22c3.12-1.03.73 4.27-1.16 3.2-.66-1 .32-2.6 1.16-3.2zm-94.2 2.2c1.72-.96 2.93 3.02.97 3.2-1.22-.32-1.8-2.25-.97-3.2zm51.05-.42l.73-.4.73.4v.8l-.72.4-.73-.4-.01-.82z" class="B"/><path d="M232.38 194.26c.95-.56 2.63.2 3.16 1.07.08 1.9-3.94.43-3.16-1.07zm-18.25 1c1.7.34 5.24-1.06 4.62 1.76-1.96-.12-3.27-.2-4.62-1.76zm10.1-.23c2.95-.78 1.04 3.05-.8 1.76-.33-.67-.06-1.26.8-1.76zm2.88.07c1.56.53 4.2 1.03 4.72 2.86-2.42-.4-3.34-.82-4.72-2.86z" class="C"/><path d="M174.98 196.27c1.9 1.9 3.5 3.95 4.16 6.63-2.28-.9-3.4-4.48-4.16-6.63zm86.32-.15c1.5-.97 2.6 1.3 1.6 2.4-1.37.76-2.47-1.37-1.6-2.4z" class="B"/><path d="M217.46 198.13c1-1.33 3.23.18 1.46 1.2-1.12.1-1.6-.3-1.46-1.2zm7.94.1c.98-1.34 3.3-.1 1.53 1.08-1.15.2-1.65-.18-1.53-1.08zm-6.97 1.93c.96-1 2.9-.18 2.03 1.23-.95.95-2.77.14-2.03-1.23zm22.8 2.3c1.37-.33 1.25 2.5.5 3.06-1.37.34-1.26-2.5-.5-3.06z" class="C"/><path d="M183.1 206.33l.82-.01.4.72-.4.73h-.82l-.4-.72.4-.72z" class="B"/><path d="M227.27 207.88c.85 3.16 1.32 6.6 1.5 9.85-2.52 1.84-1.44-3.55-1.97-4.72-1.6-.36-.82 2.82-1.2 3.8l-1-.63c.22-2.07 1.52-4.16 1.46-6.24.4-1.2-.94-4.07 1.18-2.06z" class="C"/><path d="M280.46 207.43c.55.24 1 .58 1.34 1 .12 4.86-4.04 10-5.7 14.36 2.73-2.87 5.1-7.33 8.94-8.66-.05 3.38-1.94 5.55-3.6 8.3-2.67 4.53-6.05 8.5-8.33 13.3 5.4-4.3 8.97-10.58 13.78-15.5-.5 4.06-4.16 5.3-5.87 8.78-2.24 4.9-5.55 8.93-9.06 12.96-2.08 2.4-3.17 5.27-5.42 7.55-1.68 1.72-3.17 3.53-4.6 5.45-1.4 1.85-3.8 2.82-5.48 4.5-2.5 2.5-5 5.04-7.7 7.32l-1.5.25c2.14-3.2 5.1-4.72 5.54-8.95-2.08.8-3.33 3.25-4.96 4.75-1.24-.94-2.2-2.24-3.24-3.4-2.22-2.57-5.25-4.82-7.33-7.63-.05-1.43 1-1.76 1.93-2.57 4.2-3.02 7.52-7.14 11.6-10.34 1.5-.92 3-1.58 4.14-2.96 2.4-2.7 5.56-4.3 7.8-7.18 1.6-1.8 2.46-4.26 4.34-5.7 3-2.35 4.96-5.64 7.96-8.02 2.52-2.1 4.07-4.66 5.43-7.6zm-29.3 5.07c2-.93 2.37 2.72.66 3.17-1.44-.08-1.53-2.37-.66-3.17zm-65.92 1.06c1.44-.6 1.4 4.42.01 3.86-.72-.88-.77-2.98-.01-3.86zm21.98-.13c1.18-.66 2.5 1.16 1.67 2.15-1.2.67-2.43-1.15-1.67-2.15zm-27.82.7c1.47-.9 2.58 1.58.73 1.8-.97-.35-1.22-.95-.73-1.8zm6.74 7.02c2.07.32 2.05 4.13-.05 4.95-1.6-1.77-1.04-3.12.05-4.95zm109.88 1.9c1.38.2 2.64.25 3.74 1.2.58 4.16.23 8.95 1.42 13.3l1.35.1c.2-2.13.25-4.26.54-6.4 2.14.85 4.44 1.9 6.02 3.64 1.73 1.8 3.33 4.2 5.52 5.4l1.56-1.44c2.88.74 5.4 2.7 8.23 3.7 4.4 1.55 8.04 4.35 12.57 5.57 5.9 1.4 11.14 6.43 15.82 10.06 1.64 1.3 3.73 2.57 4.07 4.8-4.46.38-6.98-2.58-11-3.65-2.8.27-5.53 1.6-8.25 2.3-2.67.8-5.5.9-8.15 1.73-1.06 1-1.97 2.1-3.03 3.12-1.88.68-4.17 1-6.18.96-2.92-2.32-5.23-4.8-9.04-5.65-3.86-1.54-7.3-.06-10.84 1.55-2.7 2.2-3.58 6.38-6.13 8.88-2.15 2.02-4.17 4.96-6.97 6-2.78 1.18-5.43 2.63-8.23 3.77 2.72-5.15 8.2-8.67 11.4-13.6 3.7-5.08 6.03-10.92 6.45-17.22-4.38 5.92-6.97 12.63-10.92 18.72-2.32 4.83-6.3 8.36-9.36 12.76a17.65 17.65 0 0 1-2.18.49l.03-2.04c-3.68 1.38-7.42 2.25-11.3 2.9 2.2-2.83 5.15-4.82 7.05-7.82 3.45-4.97 8.63-8.88 11.5-14.22-8.54 5.67-15.8 13.46-23.4 20.3-4.94 3.95-10.38 7.14-15.96 10.08-3.96 2.14-7.16.44-11.37.62-6.7.2-12.53-2.64-18.82-3.8-.66 1.07 1.18 2.77 1.56 3.84-3.6 1.44-5.67-1.55-8.4-3.36-3.36-2.32-7.16-4.3-10.8-6.15-5.48-2.04-10.07-5.52-14.54-9.2.5.98.95 2.1 1.8 2.82 3.96 3.5 8.36 6.28 12.54 9.47 2.27 1.7 5.4 2.57 7.26 4.64-.23 2.27-1.87 4.04-1.56 6.5 3.27-.58 3.43-3.07 3.72-5.8l1.12.46c-.15 2.45-1.3 4.96-2.22 7.22-3.34.6-6.87.7-10.2-.07-6.24-1.43-14.7.92-20.76-2.3-5.26-3.15-7.06-10.08-12.12-13.94-3.3-1.05-7.28-1.83-10.55-.25-1.12.33-2.46 1.34-3.63 1.2-2.84-2.84-5.07-5.64-9.26-6.5-4.7-1.64-8.43.77-13.17.33-3.2-.14-5.72-1.3-8.85-.1-2.05.55-3.04 2.1-4.66 3.36-.9.44-2.1.18-3.1.3-1.3 1.57-1.68 3.95-2.4 5.83-.87-.37-1.8-1.26-2.75-1.25-1.05.28-2.05.8-3.06 1.22.3-2.78.37-5.58.67-8.35 1.12-2.26 2.86-4.06 3.82-6.43 1.66-4 3.1-8.17 5.06-12.03 1.16-2.7 4.62-3 7.07-3.93 2.53-.66 4.44-2.23 6.7-3.38.96-.42 2.7-.3 3.28-1.2-1.5-.05-3-.01-4.5-.08l-.14-.87c1.8-1.1 3.73-1.64 5.86-1.56 6.43.34 12.76 1.18 18.94 3.06-3.8-3.2-7.76-4.44-12.65-4.83l.08-1.63c4.24-.13 8.34.4 12.58-.3-.26-1.5-3.67-1.38-4.9-2 3.42-3.25 6.42-6.4 11-8.03 4.4-2.75 9.36-3.12 14-5.26 3.87 2.68 4 8.1 6.64 11.73 6.6 10.26 15.42 19.33 24.2 27.78 2.77 2.8 6.14 4.47 9.34 6.68 2.87 1.95 4.52 4.73 7.6 6.37 2.8 1.48 5.48 3.4 8.44 4.56 3.98.54 8.53.38 12.53-.01 3.9-2.9 7.46-6 12-8.02 2.5-1.03 5.3-1.26 7.8-2.25 2.27-1.45 4.4-3.04 6.9-4.1 2.83-1.12 4.5-3.33 6.9-5.07 3.58-2.4 5.47-6.18 8.5-9.53 4-4.34 6.8-9.9 10.96-14.03 6.52-4.27 9.9-11.08 11.64-18.48-.8-1.05-1.9-2.04-2.4-3.26z" class="B"/><path d="M212 224.1c1.86.05 5.33 2.82 4.94 4.72-2.15-.16-4.9-2.5-4.94-4.72z" class="C"/><path d="M294.05 225.2c1.06 4.87-.85 10.52-4.84 13.6.53-3.72 1.43-7.44 2.55-11.03.45-.95.8-3.16 2.3-2.56z" class="B"/><path d="M189.88 226.2l.8.17 2.13 8.46c-3.9-.17-3.12-6.03-2.93-8.63zm18.48.1c.8-.5 4.64 1.5 4.17 2.55-1 1.04-4.84-1.15-4.17-2.55z" class="C"/><path d="M286.95 226.03c-.34 2.02-.74 4.22-1.7 6.04-.86 1.26-2.1.1-1.98-.97.55-2.1 1.73-4.02 3.7-5.07zM168.9 228.2l.65.4c1.64 3.85 3.85 7.5 4 11.56-1.03-.77-1.56-1.42-2.04-2.62-1.27-3.03-2.4-6.04-2.62-9.34z" class="D"/><path d="M271.4 228.2c1.33-.87 3.28 1.14 2.24 2.42-1.34.97-3.15-1.18-2.24-2.42zm-2.2 2.27c1.2-.66 2.38 1.15 1.58 2.13-1.22.7-2.46-1.14-1.58-2.13z" class="C"/><path d="M281.12 233.3c1.18.23 2.33.6 3.43 1.07.2.78.26 1.58.22 2.4-1.53.12-3 .1-4.52-.1-.17-1.4.15-2.23.87-3.38z" class="D"/><path d="M195.23 234.44c1.2-.6 2.43 1.3 1.58 2.25-1.24.63-2.35-1.3-1.58-2.25zm72.07-.17c.47.48.47.48 0 0zm-108.4 2.03c1.8 1.4 3.6 2.78 2.87 5.33-.56.28-1.3-.06-2.23-1-.8.28-1.57.7-2.34 1.04l.58-2.72-2.9.46c1.26-1.2 2.44-2.34 4.03-3.1zm23-.15c3.83 2.06 6.6 5.05 9.26 8.4 1.26-.4 2.5-1 3.7-1.52-.6 1.5-2.36 2.73-1.03 4.28 1.02-1.07 1.83-2.97 3.2-3.53 1.7-.04 1.45 1.83 2.55 2.74 3.15 2.14 6 4.64 9.1 6.86l.2 1.35c-1.27-.53-2.5-1.2-3.8-1.54-.8 2.67 3.12 2.77 2.67 4.75-4.4.8-6.14-2.1-9.4-4.25-4.44-3-7.36-7.3-10.63-11.38-1.98-2.37-4.37-3.5-5.8-6.16zm36.45 1.93c1.98.82 3.5 1.65 5.73 1.14 1.46 1.7 4.16 3.37 4.64 5.6-4.38-1-8.2-2.5-10.37-6.74zm46.52.15c.05 1.32.34 2.97-.56 4.06-3.18 4.28-5.2 9.13-8.66 13.2-1.78-.6-4.44-3.16-3.38-5.13 2.53-3.15 6-5.4 8.34-8.77 1.3-1.35 2.03-3.76 4.26-3.37zm42.33.01c2.7.35 3.58 2.14 3.85 4.66-2.18-.73-3.15-2.63-3.85-4.66z" class="C"/><path d="M175.23 239.08c2.84 1.77 4.2 5.58 3.93 8.8-3.5-.18-3.55-6.27-3.93-8.8z" class="D"/><path d="M235.13 239.52c1.24-.54 2 1.52 1.27 2.35-1.38.7-2.26-1.46-1.27-2.35z" class="B"/><path d="M279.1 238.78c1.23.01 2.46.15 3.7.4.01 1.8-.62 3.46-2.1 4.58-1.82.22-3.7.15-5.53.01.6-2.02 1.7-4.45 3.93-5z" class="D"/><path d="M193.2 240.14c1.9.36.55 2.66-.88 1.7-.44-.85-.14-1.4.88-1.7zm113.12 1.03c1.34.88 2.6 1.74 3.5 3.1.04.8 0 1.6-.1 2.44-2.97.96-3.48-3.45-3.4-5.54zM161.3 243.1c.84-.38 1.53-.37 2.08.03.25 1.1-1.87 2.16-2.7 2.47-1.6-.07-.2-2.23.63-2.5zm163.43 2.16c-.04 1.2-2.32 2.05-3.36 2.05-.55-.54-1.94-1.33-1.77-2.2.88-1.42 3.8.01 5.13.15zM164.18 245c2.96-.57 1 3-.83 1.78-.33-.7-.06-1.28.83-1.78z" class="C"/><path d="M181.02 246.08c4.26 1.56 4.38 7.02 5.06 10.8-1.56-1.56-3.2-3.22-4.28-5.15-.68-1.74-.7-3.8-.78-5.65zm91.45.48c2.4-.3 4.88-.27 7.3-.18-.84 2.22-2.23 4.35-4 5.94-2.15.1-4.33-.2-6.46-.5.65-1.93 1.5-4 3.16-5.27z" class="D"/><path d="M306.46 246.72c.5 1.93-1.06 4.87-2.56 6.04-1.02-.57-1.9-1.22-2.48-2.25l1.8-.78c.97-1.18 1.23-3.5 3.23-3zm21.2 1.08c-.52.92-2.28 1.34-3.2.9-.55-1.54 3.3-2.95 3.2-.9z" class="C"/><path d="M256.33 248.15c.9-.2 1.45.06 1.65.82.08 1.65-2.14 2.78-2.84.93-.05-.8.34-1.38 1.2-1.75z" class="B"/><path d="M335.77 249.4l.55.53-6.24 3.64c-1.42-.78-2.7-1.74-3.93-2.8l.1-.63c2.55-1.8 6.47-.36 9.52-.75z" class="C"/><path d="M254.16 251.26c1.44-.9 2.58 1.56.76 1.8-.97-.35-1.23-.95-.76-1.8z" class="B"/><path d="M338.98 253.6c2.37-.04 6.87 1.04 5.87 4.26-3.05.5-6.4-.73-9.16-2l-.36-1.62-2.37-1.2c3.03-1.07 3.3-1 6.02.55zm-92.4-.36c1.25-.64 4.03 2.35 3.1 3.5-1.15.83-3.48-2.5-3.1-3.5z" class="C"/><path d="M188 254.2c3.02 3.87 7.5 5.15 7.15 10.6-5.2-1.63-6.12-5.86-7.15-10.6zm85.87-.04c.4 1.86-2.73 4.37-4.13 5.45-1.9-.12-3.8-.95-5.53-1.72.8-5.36 5.7-4.07 9.66-3.73z" class="D"/><path d="M226.08 255.46c2.6.45 4.9 1.27 7.58.86-1.86 2.36-3.45 4.75-4.24 7.7 3.33-1.7 5.37-4.92 8.47-6.8 2.33 1.55 4.04 4.14 5.63 6.4-2.53.9-4.95 1.96-7.4 3.05-.85-.94-1.52-2.07-2.26-3.1-2.25 2.63.45 3.35 2.3 4.6l-1.2.88c-5.96-1.45-11.58-.3-17.27-2.73-1-.5-2.7-.68-2.5-2.16 2.73-2.84 7.53-6.65 10.88-8.73z" class="B"/><path d="M125.65 259c-.2 2.3-2.7 1.56-4.35 1.93.5-2.1 2.67-1.58 4.35-1.93zm44.53.16c4.25 1.7 8.2 4.04 11.77 6.9 3.83 3.04 8.25 4.82 11.94 8.05 4.37 3.8 9.2 7.28 13.14 11.52-4.44-2.02-8-5.07-12.25-7.42-2.75-1.54-5.2-3.4-7.75-5.24-3.6-2.6-6.55-6.26-10.04-8.97-2.28-1.63-4.7-2.96-6.8-4.85z" class="C"/><path d="M267.7 262c-1.23 1.97-2.56 3.92-4.02 5.73-2.76-.26-5.72-1.95-8.34-2.96-.4-1.05 2.06-2.06 2.73-2.7 2.86-2.26 6.54-1.27 9.63-.08zm-70.32.8c4.14.25 8.47 6.02 7.65 10.04-5.26.1-6.75-5.95-7.65-10.04zm117.3 3.5c1.44 1.14 3.8 2.3 3.04 4.5-1.08.44-2.24-.82-3.17-1.28-2.36-1.46-5.22-2.13-7.77-3.2-1.42-.6-2.5.05-3.68.78.23 1.15 2.15.88 3.07 1.24 3.23.25 5.05 5.07 5.43 7.78-2.57 6.34-1.94 12.52-3.43 19.07-.77 2.72.23 5.2.54 7.97-1.52-.3-2.45-2.42-3.35-3.54-1-1.78-2.82-3.58-3.25-5.58.76-2.4 2.05-4.58 2.85-6.96-2.88 1.88-5.23 5.35-5.2 8.87-.05 4.15.5 8.43 2 12.3.48 1.06.83 2.1 1.98 2.6.16-2.62.06-5.24.28-7.86l4.46 5.56c1.1 1.32 1.3 3.28 2.42 4.6 1.12.8 2.55 1.2 3.88 1.52.55-1.7.9-3.48 1.54-5.16 1.94-.06 3.86-.12 5.8-.35.77-.2 1.35.12 1.75.9 1.3 2.33 1.46 5.04.78 7.6-.76 2.52-1.15 4.96-3.74 6.22-3.33 2.2-7.22 1.47-10.54-.3-1.5-.77-1.9-2.95-2.7-4.35-1.6-2.8-2.75-5.7-5.35-7.57-1.83-1.35-2.6-3.53-4.7-4.26-2.25-.8-3.64-2.46-5.37-3.97l-1.58 1.9c-2.42-.17-4.45-1.03-6.72-1.75-.85 1.07-1.26 1.78-.9 3.2 2.8 2.16 7.36.74 10.77 1.25l.08 1.9c-7.5.1-15.28-.67-22.73.32-8.12 1.6-15.92 4.92-23.9 7.1-4.36 1.16-8.65.28-12.96 1.07-5 1.07-9.9 2.52-14.74 4.23-7.37 1.9-14.56 4.13-21.88 6.17-4.3 2.52-8.85 2.46-13.65 2.94.98-1.88 1.85-3.2 4.1-3.56 5.93-1.06 11.3-3.75 17.2-4.92 1.92-.5 4-.66 5.5-2.1-4.16.03-7.82 1.46-11.87 2.04-4.26.43-8.23 1.9-12.45 2.6-4.4 2.06-8.22 5.7-11.9 8.85-2.56 2.18-4.18 5.15-6.58 7.44-2.86 1.96-6.9 4.34-10.27 2.14-2.92-1.66-6.57-3.55-8.4-6.44.26-4.73 3.44-8.3 3.28-13.2l5.4-5.34c-.44 3.18-1.84 5.92-2.7 8.97 3.8-1.3 3.28-5.08 5.76-7.16.33 4.1-1.23 7.78-1.15 11.83l.72-.38c2.05-2.88 4.08-7 4.55-10.5.54-4.4-5.16-3.9-5.93-7.88 1.17-.4 2.8-.37 3.72-1.23-1.8-3-4.7-4.1-7.9-5-2.4-.5-3.9-2.86-5-4.86 2.28-.12 4.55-.04 6.82-.2.6-3.23-1.82-4.42-4.38-5.38-1.82-.92-4.86-1.18-5.3-3.5 2.15.04 4.68.82 6.74.12-1.55-2.74-3.77-4.64-5.8-6.96 2.93-1.07 6.55-3.1 9.34-.64 4 3.3 7.45 7.35 10.72 11.34.94 1.05 1.43 2.3 2.05 3.55l1.86-1.07c2.4.6 3.95 2.96 6.64 2.47 4-.36 7.9-.77 11.9-.2 5.43.83 10.84.6 16.3.33 6.06-.34 12.43-2.52 18.33-3.56 7.98-.85 17.35-.86 24.75-4.24 4.13-1.83 8.57-2.6 12.8-4.18 5.75-2.1 12.38-2.37 17.67-5.34 3.36-1.86 6.98-2.7 10.18-4.8 3.14-1.9 5.3-4.56 7.72-7.27 2.26-2.2 1.66-7.06 4.54-8.5 3.83-2.24 8.16-.76 11.68 1.3z" class="D"/><path d="M339.7 265.03l-.5 2.5c4.86-.83 6.88 2.48 10.8 4.45 3.1 1.82 6.92 1.6 9.87 3.53-1.12.38-4-.25-4.08 1.3 1.05.93 2.7 1.1 4 1.6.27 1.45.23 2.9.08 4.35-1.74.6-2.35-2.46-3.17-3.5-2.15-4.47-7.62-5.1-11.53-7.46-4.62-2.57-8.66-3.9-14-4 1.06-3.3 5.78-3 8.53-2.8zm16.66 1.27a23.31 23.31 0 0 1 3.13.25 12.92 12.92 0 0 1 1.32 2.43c-2.2 1.55-4.2-.5-4.45-2.68z" class="B"/><path d="M113.2 266.93c2.48-.1 4.7.18 6.6 1.9-2.15-.2-4.37-.46-6.45-1.07l-.16-.84zm42.88.07c5.63 1.16 8.1 5.2 12.48 8.44 2.65 2 5.1 4.23 7.7 6.28a67.74 67.74 0 0 0 2.85-.06c-.92 1.83-2.77 1.45-4.17.4-6.25-4.5-14.23-8.8-18.86-15.07z" class="C"/><path d="M244.88 266.6l3.4 4.05c1.65-.06 3.22-2.8 4.9-3.45 2.16.06 4.34.6 6.38 1.3.6.93.52 1.55-.2 1.85-2.5 1.64-5.25 3.3-8.13 4.15-3.22-1.97-6.53-4.04-9.4-6.5a26.11 26.11 0 0 1 3.05-1.4zm-31.9 1.55c1.63 3.1 2.6 6.58 3.63 9.92-2.23-.35-4.72-.83-6.65-2.03-1.5-1.85-2.28-4.4-3.18-6.6a67.64 67.64 0 0 0 2.39 1.25c1.4-.43 2.58-1.74 3.8-2.54zm2.12.1c2.06.4 3.93.55 5.3 2.34 2.38 2.97 6.27 5.7 7.46 9.35-2.86-.4-8.03-.43-9.34-3.52a33.7 33.7 0 0 1-3.43-8.17zm21.07-.06c4.3 2.23 9.2 4.36 12.74 7.7-2.13 1.3-5.15 2.63-7.66 2.16-2.82-2.9-5.72-4.96-9.08-7.15.5-.9 1.97-1.23 2.8-1.84l1.2-.88z" class="D"/><path d="M362.43 268.12c1.7-1.3 4 3.12 1.86 3.47-1.02-.43-2.4-2.37-1.86-3.47z" class="B"/><path d="M117.88 270.07c1.56.1 2.1 1.37 1.95 2.8-3.33.07-6.57-.05-9.86.6-.33-.64-.53-1.33-.6-2.08 1.87-2.05 6-1.48 8.5-1.3z" class="C"/><path d="M224.06 271.05c2.18-.06 5.13-.64 6.84 1.05l5.94 5.04c.6.72 2.38 1.62 1.92 2.7-2.3.37-5.05 1-7.34.42-1.92-3.64-5.1-5.9-7.36-9.2z" class="D"/><path d="M279.13 271.52c1.24-.54 2.15 1.44 1.36 2.3-1.3.6-2.35-1.38-1.36-2.3zm24.52-.2l1.5 1.8-.48 2.03-3.4-1.47c.62-1.02 1.18-1.97 2.38-2.37z" class="C"/><path d="M326.28 271.35c2.7-1.4 2.02 3.33-.25 2.3-.56-.74-.48-1.5.25-2.3zm34.1-.25c1.42-1.02 2.74 1.3.88 1.7-1-.26-1.3-.83-.88-1.7zm-55.23 2.04c1.42.13 2.58-.1 3.7 1-.67 1.35-1.4 2.42-2.78 3.13-.6-.54-1.07-1.24-1.4-2.1l.48-2.03zm27.33.12l-.58 2.2 1.78.08.02 2.23c2.25 1.98 5.27-.08 8 1.52.25.88.26 1.7.04 2.48-1.16.54-2.33.97-3.63.98-2.4-1.45-3.96-3.53-6.76-4.15-3.04-.76-6.83-.8-9.88-.15-2.13 2.2-2.9 5.48-5.54 7.43-1.7-.42-2.44-4.17-1.94-5.7 1.38-2.13 3.36-2.47 5.68-2.76l.45-3.1c1.5.9 3.14 2.23 4.87 2.53 2.04-1.04 3.24-2.45 5.68-2.67l1.8-.92z" class="B"/><path d="M276.25 274.5c1.7-1 3.2 3.2 1.02 3.25-1.1-.42-1.62-2.28-1.02-3.25z" class="C"/><path d="M343.35 274.24c1.22-1.15 3.6 1.2 3.14 2.5-1.3.6-4.2-.84-3.14-2.5z" class="B"/><path d="M112.3 275.07c.97-.46 1.8-.42 2.46.1 1 1.82-2.2 2.67-3.28 1.65-.34-.64-.07-1.22.82-1.75z" class="C"/><path d="M303.8 277.1c.04 2.6-3.23 5.14-3.8 7.87-1.94 5-1.32 9.67-1 14.84-4.9-2.46-3.68-7.17-4.2-11.7-1.6.03-3.15 1.42-4.5 2.18-3.25 2.2-6.82 2.87-10.62 4.4-4.1 1.48-8.14 3.48-12.6 3.42l.27-.8 15.75-7.35c1.7.4 2.92.4 4.13-1.03l.97-.92c1.73-.15 3.06-.26 3.7-2.14l.25-.5c.7-.38 1.28-.87 1.74-1.46 2.22-2.8 6.05-6.93 9.9-6.8zm-188.58 3.3c.74-.23 2.48.36 2.15 1.36-.8.72-2.84 1.4-3.87.98-.33-.92.93-2.05 1.72-2.34zm97.08-.4c3.02.9 5.83 2.5 8.87 2.8 3.43.4 7.06.53 10.5 1.34.2.6-.23 1.04-1.3 1.3-3.15 1.3-6.2.64-9.2-.67-3.15-1.4-6.57-2.23-8.9-4.77zm111.42.97c-3.5 4.38-8.34 10.1-8.5 15.97.4 1.55.2 4.44 2.55 3.7.3-1.5-1.34-5.5.23-6.08 1.16 1.83 1.18 3.9 2.64 5.58-.23-2.02-.6-4-.77-6.04 1.38.25 1.42 2.84 2.35 3.82.84.07 1.7.06 2.56-.03.35-2.2.3-4.37.4-6.6 1.5.35-.15 4.35 1.86 4.86 1-.84 1.44-1.95 2.03-3.08 1.1 2.56 1.8 3.9 4.48 5-.7-1.7-1.86-2.84-1.4-4.78 2.77-1.45 2.14 3.8 3.85 4.6.87-1.67 1.56-3.4 2.64-4.94-.16 1.52-.8 3.2-.53 4.7 2.02 2.05 5.2 3.65 6.58 6.2-1.4.57-2.66 1.48-4.2.72-4.66-1.93-10.5-3.5-15.38-1.47-4.82 1.3-9.63 3.52-13.85-.47-.24-1.17-.33-2.38-.28-3.63-.35-4.8 4.7-9.14 7.48-12.63 1.97-2.14 1.8-5.4 5.25-5.4z" class="B"/><path d="M180.2 283.2c1.68.16.87 2.35-.4 2.53-1.5-.15-.7-2.32.4-2.53zm113.7.7c-.46.6-1.04 1.08-1.74 1.46l-.92-1.46c-.01-1.82 1.93-.6 2.66 0z" class="C"/><path d="M340.07 283.05c2.52.34 4.9.38 7.45.3a5.01 5.01 0 0 1 1.23 1.28c-1.8.4-3.67.8-5.52.8-1.6-.33-3.07-.37-3.16-2.4zm-230.8 1.17c2.26 1.02-1.94 3.42-1.95 1 .38-.7 1.03-1.04 1.95-1zm12.1-.1c1.44-.93 2.62 1.5.78 1.77-.98-.33-1.24-.92-.78-1.77zm-2 1.13c.04 2.25 1.17 3.86 2.3 5.7-1.74-2.34-4.4-3.03-6.36-4.8 1.33-.4 2.7-.73 4.07-.92z" class="B"/><path d="M183.24 285.4c2.6-1.3 2.23 3.37-.15 2.26-.6-.75-.56-1.5.15-2.26zm108.66.47c-.65 1.88-1.98 2-3.7 2.14.7-1.9 1.5-3.52 3.7-2.14z" class="C"/><path d="M355.1 285.08c1.74-1.2 2.96 1.56.87 2-1.14-.3-1.43-.98-.87-2z" class="B"/><path d="M187.97 286.42l4.27 1.7c1.28 1.8.3 3.04-1.23 4.18-.48-.9-.9-1.87-1.23-2.88l-2.76.04c.2-1.06.47-2.08.95-3.05z" class="C"/><path d="M312.13 286.18c.97.33 1.6.9 1.88 1.73-.92 1.15-1.56 1.73-3.07 1.96.1-1.45.37-2.48 1.2-3.7zm35.47 0c1.06-.7 3.6-.24 4.04 1.06.03 2.04-4.78.38-4.04-1.06zm-225.2 1.92l.73-.4.72.4v.82l-.72.4-.73-.4v-.82z" class="B"/><path d="M287.23 288.93c-1.2 1.42-2.43 1.42-4.13 1.03 1.28-1.78 2.2-2.1 4.13-1.03z" class="C"/><path d="M334.1 288.37h.8l.4.73-.4.72-.82-.01-.4-.72.42-.72zm-186.72 1.1c1.68-1.18 3.8 2.18 1.58 2.9-1.58.15-2.52-1.67-1.58-2.9zm190.78.68c1.8.28.58 2.75-.83 1.8-.43-.87-.15-1.47.83-1.8zm-223.06.65c2.7.13 4.62.2 5.7 3.04h-6.6c.32-1.13 2.54-.5 3.48-.77.2-1.4-2.72-.65-2.56-2.27z" class="B"/><path d="M194.2 291.05c2.43-.86 1.76 2.96-.1 2.94-1.5-.4-.93-2.3.1-2.94zm3.75-.18c1.82 2.4.92 4.4-.4 6.73a4.81 4.81 0 0 1-2.28.17c.16-2.47.95-5.1 2.7-6.9zm-42.42 1.33c.6-.8 3.3-.8 2.95.58-.6.8-3.28.8-2.95-.58zm1 2c.8-.75 3-.77 3.14.6-.36 1.9-4.14 1.43-3.14-.6z" class="C"/><path d="M345.2 295.15c2.67.74-2.56 4.25-2.76 2.12.44-1.03 1.66-1.94 2.76-2.12zm33.1-.1c1.58 2 2.13 4.34 2.57 6.8-1.43-2.08-1.98-4.4-2.57-6.8zm-218.34 2.4c1.52.14 3.16.3 4.58.9l5.18 5.92c.82.85 2.24 2.33 1.15 3.48-3.2.85-4.18-1.6-6.23-3.37-2.47-2.32-4.9-2.96-4.68-6.94zm-15.2 4.5c-2.56-.15-5.1-.76-7.65-.85-1.47.15-2.8 1.23-4.18 1.77-1.7-.87-2.6-2.3-3.6-3.82 1.33.45 2.7 1.27 4.12 1.37 2.98-3.22 9.4-2.67 11.3 1.53zm4.36-3.8c2.17.37 3.5.75 4.65 2.75-1.75-.5-4.9-.2-4.65-2.75zm113.55.06c.05 3.7-5.63 4.12-8.33 3.26a20.58 20.58 0 0 1-.09-2.23c3.3.7 5.34-.65 8.42-1.03zm-173.42 1.05c2.25.12-.33 4.1-1.73 3.5-.37-1.04.7-3.12 1.73-3.5zm37.33 2.92l1.58-1.07c1.3.6 2.13 1.6 2.87 2.8-3.3 1.04-6.65.83-9.84 2.3-2.87 1.52-6.7.47-9.87.35l.3-1.3c2.88-.9 5.93-.13 8.78-.76 1.5-.4.98-2.37 2.45-2.75 1.25-.54 2.48.37 3.74.42zm121.62-1.13c1.74-.4 2.52 1.55.8 2.27-1.75.32-2.5-1.52-.8-2.27zm-149.58 1.87c-.9 1.56-1.95 4.3-3.78 4.85-.12-3.3.92-3.86 3.78-4.85zm3.68.18c.88-.43 1.6-.4 2.16.1.54 1.32-2.16 2.2-3 1.53-.22-.58.06-1.12.85-1.62zm130.97.18c1.3.1 2.37-.04 3.3 1.06.17 1.08-.24 2.48-1.48 2.63-1.66-.93-2.08-1.8-1.82-3.7zm6.3-.18c1.58-1.2 3.68 1.08 2.26 2.55-1.42.96-3.08-1.3-2.26-2.55z" class="B"/><path d="M267.27 303.37c1.88-.13.28 4.78-1.1 4.04-.95-1-.2-3.63 1.1-4.04zm2.88-.1c1.53-.18.18 3.98-1.04 3.26-.9-1-.15-2.86 1.04-3.26zm2.97.23c1.95-.14 3.92-.03 5.87.06a24.59 24.59 0 0 1-.38 3c-2.2.24-4.34-.5-6.63.01.2-1.05.08-2.48 1.14-3.07zm7.15-.2c2.6-1.43 2.2 3.38-.1 2.32-.58-.75-.54-1.52.1-2.32zm-100.1.94c2.26.7 2.03 4.02-.2 4.58a36.85 36.85 0 0 1 .19-4.58zm84.03-.01c2 .22.96 4.63-1 3.44-.94-1.04-.3-3.04 1-3.44zm-85.98 1.13c1.57 0 1.15 2.38-.1 2.64-1.47-.1-.93-2.26.1-2.64zm21.95.1c1.6-.43 1.63 2.55.02 2.13-.7-.7-.7-1.42-.02-2.13zm6.9-.16h.8l.4.72-.4.73-.8.01-.4-.73.4-.73zm3.07-.08l.82.02.4.74-.43.7-.82-.02-.38-.74.42-.7z" class="C"/><path d="M225.07 305.43a20.82 20.82 0 0 1-.28 2.26c-3.65 1.34-7.6 1.46-11.3 2.8-4.42 1.65-9 1.3-13.54 2.5-4.26 1.1-8.93.42-12.8 2.22-4.7 2.15-9.28 4.5-13.92 6.74 1.16-2.28 2.88-4.07 4.44-6.07-1.28-2-3.24-3-3.67-5.57 3 .97 5.7 2.12 8.97 1.66a144.67 144.67 0 0 1 11.76-1.26c10.17-1.76 20.33-2.44 30.32-5.28zm104.03-.08c2.9-.2 5.85-.3 8.74-.1 2.47.44 4.86 1.72 7 2.97.18 2-3.05 1.34-3.63 2.9 2-.22 3.9-.77 5.86-1.1 1.08-.2 2.84.53 2.67 1.87-1.17.42-5.32-.46-5.46.92l4.52.2.06.9-4.73.23c-.3 2.1 3.7 2.02 5.1 2.3.56.57.35 1.76.4 2.5l-4.52-.88c.72 1.34 3.3 1.43 4.63 2.08a12.92 12.92 0 0 1-1.18 1.6c1.6.47 2.9.7 3.68 2.34l-.6 1.72c1.07 1.23 2.32 2.35 3.65 3.3l3.62.12c-1 1.8-3.88 2.26-5.75 2.02-3.8-2.4-6.93-6.28-9.6-9.82-1.53-2-3.57-2.96-5.48-4.48-1.28-1.4-1.87-3.4-3.23-4.77-2.07-2.1-4.38-3.74-6.17-6.13l.44-.7zm15.13-.08c.54.5.54.5 0 0z" class="B"/><path d="M197.1 306.4c1.46-.95 2.6 1.45.78 1.76-1-.3-1.25-.9-.78-1.76zm6.02-.08c1.48-.88 2.54 1.6.72 1.8-.98-.35-1.22-.95-.72-1.8zm57.54-.36c-.25.92-.6 1.8-1.02 2.64l-2.36.16c-.47-2.4 1.64-2.46 3.38-2.8zm-73.86 1.26a20.95 20.95 0 0 1-.09 2.25c-1.47.2-2.94.2-4.4.12 1.02-2.7 1.88-2.27 4.5-2.37z" class="C"/><path d="M313.7 307.35c.05 1.28-.15 4.15-1.65 4.54-.94-1.7-1.54-5.57 1.65-4.54zm-164.1.4c1.74 1.78 1.76 4.58 2.76 6.9.46 1.85 2.2 3.43.38 5.03-3.1 2.22-6.73 5.68-10.7 5.6-3.85.2-7.1 2.25-10.9 2.88-2.72.42-4.5 2.76-6.53 4.45-2.82 2.7-6.35 4.96-8.68 8.1 1.98-.87 3.88-1.9 5.87-2.75-1.36 4.9-6.2 10.95-11.7 11 .65-1.74 1.67-3.04 1.6-4.98-.01-3.58.66-7.1 1.74-10.5.94-1.94 2.23-3.72 3.3-5.6-1.52.68-3 1.43-4.55 2.07 1.75-3.4 6.17-5.18 9.65-6.2-.63 1.36-1.28 2.7-1.8 4.1 2.9-.6 4.55-2.56 6.52-4.57l-2.22-.38c-.34-1.82 1.8-1.53 2.96-1.36 3.42.6 5.94-.88 9.13-1.82l-.93-1.9c2.06.52 3.57 1.8 5.28 2.97l.38-2.47c.85.34 1.7.7 2.57.96 2.06-1.66 4.2-3.07 6.43-4.48.07-2.34-.4-4.73-.6-7.07z" class="B"/><path d="M189.17 308.14c1.82.2.73 2.74-.74 1.82-.46-.85-.22-1.45.74-1.82zm2.03-.08c1.8-1.17 2.9 1.65.8 2.03-1.12-.33-1.4-1-.8-2.03zm61.7-.04c-.5 2.1-3 2.85-4.73 3.82 1.2-2.42 2.04-3.2 4.73-3.82z" class="C"/><path d="M95.9 309.93c-1 4.55-3.7 8.06-6.95 11.26-.56-.5-.86-1.18-.9-2.06 2.75-2.97 5.1-6.25 7.84-9.2zm59.6.25c1-.82 2.83.42 2.12 1.62-1 .8-2.8-.42-2.12-1.62z" class="B"/><path d="M295.35 310.3c2.3-.25 2.87.75 3.37 2.78-1.9.06-4.2-.3-3.37-2.78z" class="D"/><path d="M327.4 310.2c.76-.62 1.45-.65 2.07-.07.75 2.03-3.47 2.4-2.07.07zm-226.25 2c1.28.23.9 2.57 1.12 3.56.03 1.87.26 3.6-1.04 5.12-.23-2.88-.23-5.8-.08-8.68zm228.37-.15c1.53 0 1.78.73 2.3 2l-.83 2.1-.4.55.4-.55 3.1-.97c-.77 1.6-2.2 2.24-3.48 3.35-.5.85.37 2.2.62 3.1 1.6-1.03 3-2.26 4.48-3.45l-.27 2.52c1.02.13 2.45-.2 3.3.4-.64.78-1.57 1.32-2.35 1.97l.72 1.36c-.1.8-.48 1.6-.7 2.37l3.4-.63-2.42 2.93 6.43-2.2c-1.06.97-2.26 1.9-3.1 3.06.34 1.44 3.24.18 4.3.27-.48 1.37-2.14 1.34-2.6 2.4 1.4.78 2.75.93 3.05 2.77-.08 4.2-.62 8.04.88 12.1.9.8 2.03 1.4 3.03 2.12.37 4.54.82 9.57-.67 13.94-.7 2 .58 4.3.48 6.4-.4 2.68-1.4 5.28-1.3 8 .18 3.47 2 6.44 2.06 10 .1 4 .15 8.02-.1 12-.28 3.9-2.26 7.17-2.66 11.07-.58 5.1-1.48 12 .56 16.8-.14-3.22-.1-6.3.66-9.46.33-.97.33-2.85 1.42-3.26.02 5.42 1.5 10.28 3.58 15.23l.53.24c-.62-4.64-1.72-8.83-1.3-13.6.35-3.34.73-6.63.73-10 .04-3.1 1.34-5.88 1.46-9 .35-5.52-1.5-11.26-3.5-16.35-1.42-3.5-.87-7.8.83-11.1 3.14.2 5.13.95 6.72-2.48-1.9-.28-4.54.24-6.2-.76-2.4-1.74-.62-4.83-.74-7.28.44-3.73-1.85-8.17 2.28-10.35l.84.22c5.13 1.48 9.38 1.43 13.92-1.55 2.7.9 5.05 2.17 8.03 2.05 2.92.1 5.27-1.07 7.9-2.1.08 4.16.33 8.38-.04 12.53-.06.9-.46 1.5-1.2 1.87-7.06 4.13-15.32 2.52-22.72 6.4l.3.86c2.8 1 5.2.18 7.8-.9 3.2-1.46 6.45-1.3 9.9-1.14-.07.72-.6 1.23-1.57 1.53-3.57 1.5-7.4 1.7-10.97 2.7-.3.66.06 1.08 1.14 1.27 4.97 1 10.45-.25 15.24-1.67 2.97-1.48 4.85-5.16 7.3-7.43-.95 3.87-3.44 6.54-5.6 9.77 2.67-.72 4.9-1.77 6.73-3.9 2.9-2.85 2.8-7.17 4.2-10.76.33-.87 1.1-1.37 2.26-1.5-.33 4.92-.96 9.83-1.46 14.73.88-.85 1.77-1.7 2.7-2.52 1.2 2.96 1.74 6.1 2.88 9.1 1.7 4.47 3.08 8.9 3.3 13.73.4 9-.37 18.04.04 27.05.2 2.96 1.06 5.46.33 8.36-.68 4.06-3.4 6.8-5.5 10.53-1.98 3.56-5.56 4.65-8.12 7.87-2.48 3-5.58 6.35-9.8 6.27-4.1-.14-8-.13-11.5-2.56-2.73-1.9-5.78-2.04-8.8-3.12-1.85-1.96-3.2-4.06-5.7-5.33-4.1-2.34-5.18-6.37-8.64-9.32-2.5-2.17-3.76-5.78-5.34-8.65-1.58-2.8-.7-5.72-1.1-8.98-.4-2.7-1.12-5.3-1.1-8.07.02-5.92-1.02-11.62-.23-17.55.75-5.35-1.22-9.58-2.37-14.73-.9-3.9-3.27-7.77-3.13-11.7.06-5.02.7-9.7-.33-14.78-1.18-2.2-3.04-3.54-3.1-6.2-.14-4.86 1.8-8.57-1.37-12.96.53 4.23-.57 7.86-1.24 11.94.28 4.48 2.02 8.34 1 12.95-1.36.02-2.47-.75-3.3-1.78-1.68-3.3-1.13-8.3-3.55-11.1-.2 3.1-.54 6.5.17 9.57 1.55 4.18 4.02 8.05 5.82 12.13 1.53 3.46 1.24 7.67 3.3 10.73 1.06 1.84 2.6 3.67 3.2 5.72.92 9.26 2.62 19.33 2.14 28.76-.1 3.6.52 7.12 1.62 10.53 1.27 3.92 1.53 8.07 3.53 11.48 2.82 4.67 7.18 9 9.27 14.06-.6 2.72-2.52 4.83-4.15 6.98-2.2 2.8-3.53 5.84-5.44 8.94h-6.95c2.52-2.9 4.52-6.14 5.34-9.94.72-3.9 3.16-6.47 4.9-9.87-3.14 1.94-4.9 4.73-7.26 7.47-3.24 4.13-6.66 8.1-9.73 12.34h-41.58c4.6-2.46 8.83-5.4 12.97-8.53l.75-1.14c-4.8 1.77-9.63 2.9-14.55 4.26-4.23 2.07-8.7 3.43-12.95 5.4H187.2c-3.48-2-7.4-1.4-10.95-3.3a70.9 70.9 0 0 0-13.25-5.63c2.7 4.12 9.13 5.52 12.57 8.92h-30.53c-2.94-2.06-5.42-4.57-7.82-7.22-.8-.95-1.82-1.7-1.82-3.05l-.16-9.46c1-2.08 2.37-3.74 3-6.02 1.55-4.95.57-9.5 1.3-14.65.78-3.78-3.77-7.1-3.25-10.63.3-3.86.56-7.77 1.13-11.6.56-3.65 2.3-6.9 3.1-10.44-.1-3.97-1.66-7.93-1.93-11.9-.1-2.87.23-5.68-.2-8.55-.82-4.98.56-10.26.92-15.28.68-6.3 5-10.86 5.78-17.07-.03-.86.55-1.2 1.74-1.07.17 2.3-.83 5.4.95 7.14 1.72 2.18 4.43 3.73 6.65 5.38 2.78 2.14 6.82 3.87 10.36 3.33 4.26-.83 5.57-5.53 8.64-8.46 4.2-5.22 11.28-5.92 17.48-6.64-.52 2.02-3.1 3.12-4.5 4.6-4.77 5.94-8.7 12.34-11.62 19.4-1.7 4.47-4.9 7.12-4.78 12.1 5.62-7.53 9.2-16.56 14.75-24.13 2.93-4.76 6.87-8.35 10.9-12.13 3.9-1.3 6.85-3.6 11.07-2.94 1.62-1.22 2.72-2.7 4.82-3.16 4.32-1.02 8.02-3.53 12.38-4.35 4.78-1 9-2.97 13.93-3.37-.3 1.5-3.53 1.67-4.8 2.32-3.96 1.6-8.15.94-11.94 2.96-4.2 2.1-9.78 3.1-12.2 7.48 4.38-1.07 7.23-4.33 11.67-4.94 5.54-.86 10.92-.84 16.27-2.84 2.88-1.16 5.86-1.4 8.9-1.9 6.64-1.46 13.9-1.95 20.56-.3 3.02.72 6 .77 8.52 2.5 11.18 6.4 20.74 14.94 26.4 26.7.8 1.85 2.6 3.9 2.6 5.95-5.3.62-10.6-.15-15.88.17-3.15-.03-5.76 3.36-6.86 6 .67 1.32 1.64 2.37 2.82 3.26 1.2-.54 1-2.8 1.5-3.93 2.68-1.24 5.54-1 8.25.02.74 1.64-.98 3.22.12 4.96 1.07 2.16 1.2 4.26 1.32 6.62 1.54-.27 1.03-4.6 2.04-5.95 1.17 1 1.58 2.74 2.57 3.95-.3-1.92-.7-3.78-.8-5.72 1.6.43 2.72 1 3.3 2.65 1.25 4.44 1.34 9.55-.58 13.82-1.82 4.82-3.3 9.16-8.32 11.5 2.4-4.93 6.2-8.14 6.7-14.02l-.74.3c-2.52 4.63-3.86 10.12-9.32 12.38 1.25-2.65 3.67-4.26 4.93-6.87 1.44-3.13 3.5-6.16 3.28-9.68-1.36.2-1.48 2.84-2.1 3.9-1.27 4-4.1 6.15-6.83 9.12-1.28 1.3-2.2 2.6-4.17 2.78 1.22-2.55 4-3.95 5.58-6.37 2.15-3.34 4.28-6.48 4.4-10.6-2.1 1.3-3.06 4.56-4.36 6.6-1.6 3.42-4.33 5.54-7.1 7.94-2.92 3.32-8.28 2.26-12.5 3.47 1.46-3.93 5-9.7 4.7-13.78-2.52-2.2-5.92-4.74-8.84-6.34-3.82 1.97-7.8 2.37-12 2.85-.22-1.93-.17-3.8.2-5.7 7.96.1 15.8 2.66 23.8 2.84 1.43-.1 2.76-.16 3.75-1.34.4-2.5-1.5-3.75-3.1-5.25-1.87-1.46-4.12-3.42-6.6-3.34-5.58-.24-11.32.36-16.9-.2-.42-1.8 1.67-2.82 2.67-4.05 1.38-1.2 1.68-2.88 2.54-4.54 2.35-.94 5.5-.98 7.5-2.58.28-1.16.25-2.24-.08-3.25-2.58-2.75-5.54-4.18-9.22-4.86-.02-1.66.55-3.5.15-5.1-1.97-2.04-3.93-4.23-6.14-6-2.65-.9-5.56-1.45-8.37-1.27-.23.93-.2 1.78.08 2.57 1.46 4.26 3.7 9.5 2.9 14.07-3.87 3.24-9.18 3.9-14 4.4-2.33.02-3.06 2-5.03 2.77-2.82-2.47-4.86-6.36-8.37-7.7-2.97-1.12-6.2-3.3-9.42-3.14 1.17 4.2 4.7 7.47 5.88 11.8-1.48 2.27-3.7 3.85-5.12 6.2 6.96.56 14-1 20-4.56 3.6.8 7 3.5 10.16 5.4-1.93 3.2-5.1 5.87-7.74 8.5-4.87 5.07-12.35 9.22-16.3 15.5 2.67-1.46 5.02-3.37 7.72-4.7.33.85.6 1.73.9 2.58 2.62-.5 4.36-3 7-3.7.76 8.7.54 18.48 6.58 25.5 4.8 2.54 12.24.93 17.48.8.83 1.03 1.35 2.2 1.83 3.4-5.6 1.23-11.2.8-16.74 2.22-2.63.6-5.2 1.5-7.86 1.95-2.08-.52-3.35-3.04-5.65-3.45-4.06-1.25-7.27.54-11.3.34-.1-2.35 1.32-4.7 1.58-7.05.62-4.83 1.73-9.95 1.3-14.76-1.33.22-1.32 2.88-1.9 3.93-1.13 4.18-5.44 5.7-6.5 9.67-.62 1.6-1.27 3.83-3.46 3.38-2.76-.47-2.03-3.92-1.93-5.93.08-3.6 2.72-6.04 2.52-9.68.1-5.7 4.26-9.46 3.1-15.3-1.1-4.42-4.02-8.53-6.77-12.1-1.28 1.84-2.44 3.58-2.4 5.92-.2 3.96 1.63 7.87 1.17 11.76-2.63.73-5.25.72-7.93.47-2.64-.35-5.13 1.04-7.75 1.6-1.28-1.75-1.3-3.7-1.46-5.8.07-1.95-.42-3.74 1.44-5 2.2.67 3.23 3.54 5.67 2.74.56-1.9.8-4.23-1.05-5.5-1.87-1.55-4.23-1.73-6.5-1.05-4.22 1.5-8.04 3-9.22 7.8 2.95-2.06 4.6-4.8 8.4-5.62 1.63-.47 5.78-1.55 5.77 1.26-1.86.05-4.48-.85-5.93.58-2.08 1.95-3.36 4.58-5.47 6.53-2.07 1.9-3.74 4.18-5.8 6.1-.05-2.5 1.04-4.54 1.62-6.9-.97-5.84 2.65-11.3 4.27-17.14 4.77-8.78 9.76-17.97 17.35-24.58 1.7-1.6 3.63-2.5 3.78-5.1-3 .32-5.46 3.36-7.55 5.33-8.5 8.16-13.15 18.5-18.05 28.95-2.93 7.25-3.6 14.72-3.88 22.46-1.8 11.23 1.5 22.88 6.96 32.67 1.72 3.6 4.9 6.5 7.38 9.64 4.94 6 11.27 9.17 17.8 13.18 3.53 2.26 7.28 3.02 11.28 4.7 4.2 1.73 8.5 2.87 13.07 2.83 5.5-.1 10.5 1.98 15.96 2.23 5.55.34 10.94-.48 16.3-1.84 5.33-.98 10.37-2.84 13.98-7.06 2.18-2.8 5.5-3.63 7.93-6.06 6.12-5.93 11.7-12.5 16.44-19.56 6.02-10.73 11.15-21.53 13.14-33.8.74-4.8-.4-9-.47-13.77 0-11.15-7.28-21.96-13.67-30.62-5.98-7.33-13.62-13.47-21.8-18.2a51.92 51.92 0 0 0-20.73-5.48c1.47-1.1 3.18-1.37 4.95-1.52 7.38.5 12.36 5.12 19.26 6.6 3.6.9 6.22 3.6 9.77 4.9-2.25-5.4-7.2-5.48-11.78-8-4.06-2.24-8.5-3.22-12.75-4.94l-.2-.65c2.75-1.26 5.64-1.76 8.65-1.74l15.93.06c3.1.06 5.94 1.5 8.52 3.1 3.57 2.25 5.55 5.4 8.82 8.2 1.72 1.38 3.35 3.38 5.75 3.26 3.5.07 7.4.01 10.7-1.23 2.08-1.27 4.38-2.46 6.2-4.08-.03-1.32-1-2.57-1.38-3.83.5-2.32 1.1-4.43 1.02-6.84zm-213.48 1.08c-.23 1.83-.74 3.53-2.56 4.34-2.37 1.2-4.4 2.6-6.44 4.26 1.77-3.65 5.02-7.38 9-8.6zm-30.64 1.1c2.52-1.64 1.58 4-.2 3.3-.64-1-.58-2.1.2-3.3z" class="B"/><path d="M331 316.15l-.4.55.4-.55z" class="C"/><path d="M83 317.03c2.04 1 1.97 3.52 1.47 5.44-.67 2.6-.23 4.92.7 7.4 1.5.07 3.24-.63 4.48.28-.65 1.6-1.5 3.07-2.63 4.36-.9-.4-1.8-1.35-2.8-1.3-3.82 4-4.4 9.36-3.28 14.58.85 1.14 1.83 2.18 2.75 3.27-1.3-.32-3.37-.5-3.26-2.3.01-3.22-.75-5.9-1.7-8.9.73-3.24 4.14-7.04 3.14-10.6-.6-2.78-.26-5.48.03-8.28.32-1.03-.1-3.56 1.1-3.95zm15.17.17c1.87.07.58 4.3-1.04 3.4-.8-1-.1-2.96 1.04-3.4zm17.63.8l1.57 1.37c2.88-.5 4.52-1.96 7.4-.15-.2.56-.65 1-1.32 1.3-2.6 1.27-5.3 3.7-8.3 2.6l.6-3.15-4.56 1.88c1.24-1.7 2.58-3.16 4.63-3.87z" class="B"/><path d="M311.1 318.3h.82l.4.73-.4.72-.82-.01-.4-.72.4-.72zm9.9.2c.52.56.75 1.3.7 2.2a23.83 23.83 0 0 1-3.27.11c-.55-1.27.12-1.18 1.04-1.8a10.29 10.29 0 0 1 1.54-.51z" class="C"/><path d="M389.75 319.47c2.45 2.78 4.46 6.44 4.27 10.26-2.07-1.03-1.86-5.27-4.04-6.7-.56-.8-3-1.92-2.56-2.95.77-.43 1.55-.63 2.33-.6z" class="D"/><path d="M91.86 323.17c.1 2.24.1 4.5-.07 6.73l-.7-.35c-.55-1.9-2.02-5.63.76-6.38z" class="B"/><path d="M182.06 323.3c-.87 2.73-4.7 4.27-7.12 5.34 1.13-2.68 4.6-4.25 7.12-5.34z" class="C"/><path d="M387.8 323.38c3.14 1.35 2.7 7.43 3.2 10.32-1.5-.3-.48-3.7-1.96-4.68-.87-1.35-3.7-3.12-3.5-4.78.74-.38 1.5-.66 2.26-.86z" class="D"/><path d="M109.23 324.23c.53.5.53.5 0 0zm4.67-.4c-1.22 3.23-3.47 5.92-4.66 9.23l-2.3-2.23c-1.28 1.06-2.44 2.28-3.66 3.42.5-1.5 1-3.23 1.97-4.5l2.35-.35c2.3-1.5 3.1-6.46 6.3-5.58zm-9.67 2.37c2.22.3-.7 3.9-1.96 3.27-.5-1.14.83-3 1.96-3.27z" class="B"/><path d="M380.78 325.93c-.7 1.5-3.3 1.6-3.76 3.17 3.1-.53 5.47-1.9 7.74 1.2.5 3.58.55 7.72-.06 11.3-.92 2.02-2.84 1.35-4.67 1.47-2.2.1-3.34-1.64-5.14-2.75.73 4.13 4.22 5.06 7.94 4.95-1.06 2.33-4.25 2.08-6.14 1.07-2.1-1.85-3.83-4.42-3.85-7.32-.43-3.62 1.5-7.07 2.94-10.3.96-2.14 2.84-2.63 5-2.77z" class="D"/><path d="M145.78 327.25c-2.07 3.97-5.56 4.12-9.6 3.78 1.68-4.34 5.8-3.48 9.6-3.78z" class="B"/><path d="M374.75 326.87c-1.1 5.2-4.47 8.03-3.98 13.13.07 3.2 1.93 5.12 3.18 7.9-1.92-.3-2.74-1.76-3.53-3.36-1.65-4.37-2.04-8.92-.18-13.3.74-2.3 2.43-3.44 4.5-4.38z" class="D"/><path d="M171.27 329.27c.86.44 1.42 1.02 1.7 1.7-.5 1.36-1.64 1.5-2.85 1.95.3-1.25.66-2.47 1.16-3.66z" class="C"/><path d="M368.84 328.95c-.58 1.37-1.14 2.76-2.1 3.9-1.9.3-3.73.23-5.62.07 2.1-1.9 5.1-2.97 7.73-3.98zm-236.02 2.37c2.05 1.14-.84 3.5-1.25 4.97-.07 2.17.38 4.4.7 6.53 2.57-2.36 2.46-6.8 4.94-9.5a6.58 6.58 0 0 1 2.5.88c.04 1.6-1.23 3.2-1.83 4.65-2.37 4.53-2.13 9.26-4.17 13.9-1.4 3.5-3.45 6.18-3.72 10 2.4-2.8 3.68-6.4 5.77-9.48-.2 2.02-.36 4.02-.12 6.04.62 5.9.68 11.77.5 17.7-.18 4.78.7 9-1.1 13.55-2.03-1.54-3.3-1.2-5.67-1.08-2.4-4.22-.4-7.08.22-11.33-.7-1.17-1.55-2.23-2.27-3.4-.07-1.54 1.3-2.98 1.23-4.53-.3-2.73-1.44-5.48-1.45-8.23.34-1.64 1-3.2 1.3-4.86.08-2.3-2-3.72-3.2-5.5-.2-2.1.6-4.32.7-6.45-.74-.9-1.6-1.7-2.38-2.6.48-5.17 4.14-10 9.28-11.27z" class="B"/><path d="M169.94 334.1c-2.1 3.2-6.52 7.7-10.76 6.24a25.27 25.27 0 0 1-.16-1.75c1.03.1 2.13.45 3.16.32l.63-1.34c.63-.1 1.25-.16 1.88-.22 1.18-1.53 2.95-5.77 5.25-3.25z" class="C"/><path d="M349.66 333.27l1.75-.3c-.02 1.56-.64 2.88.27 4.26 2.35 3.82 3.33 8.2 3.37 12.67l-.84-.22c-.92-2.74-1.9-5.45-2.63-8.24-.44-.98-.42-3.08-1.67-3.3-.33 3.37.47 6.44.94 9.73-1.57.15-2.45-.5-2.7-2.07-.33-2.4-.82-4.96-.55-7.38l1.75-1.93c.2-1.05.2-2.15.3-3.22zm16.1.83l-.14 1.24c-3.37.47-6.85 1.63-10.16 1.24l-.27-1.45c3.25-1.32 7.12-1.33 10.57-1.03z" class="D"/><path d="M296.23 335.1c5.58 1.8 8.78 6.3 11.47 11.23 2.76 5.36 5.87 9.8 7.1 15.8 1 5.28 2.8 9.73 2.85 14.88.23 7.34-1.93 13.6-2.9 20.78-.65 4.53-3.04 8.96-4.7 13.28-1.36 3.58-3.97 5.95-6 9.08-1.08 1.56-.58 3.73-1.65 5.26-1.85 2.85-3.8 5.6-5.23 8.7 2.84-1.4 4.6-4.02 7.36-5.57 4.4-2.52 7.82-6.2 12.32-8.53-1.5 3.4-4.26 5.54-6.22 8.6-2.2 3.6-5.66 6.43-8.65 9.38-3.8 3.62-8.58 5.2-12.8 8.2-3.14 1.96-6.66 3.17-9.8 5.16-4.27 2.15-8.3 4.92-13.22 4.7 2.05-2.32 5.97-2.5 8.37-4.52 5.03-4.4 10.7-6.65 14.67-12.27 3.07-4.85 6.87-9.13 11.05-13.03.65-4.24 3.48-7.02 5.15-10.83 1.5-3.07 3.5-5.26 4.45-8.5 1.54-5.27 2.96-10.58 4.18-15.92 1.42-5.76.97-11.97 1-18 .13-5.97-2.76-10.15-4.14-15.8-.72-2.82-1.7-5.26-3.43-7.63-2.26-3.1-3.1-6.66-5.75-9.24-1.8-1.78-3.8-3.3-5.5-5.2zm77.97.36c1.43-.6 1.42 3.52.01 3.1-.75-1-.75-2.04-.01-3.1z" class="C"/><path d="M395.77 335.22c.44 3.84.53 7.6 1.68 11.34.27 1.35 1 2.9.7 4.27-2.28 3.7-5.04 6.75-9.2 8.3-1.03-.75-1.03-2.62-1.4-3.77-.6-3.13-1.63-7.07-.62-10.17 3-3.25 5.5-7.1 8.85-9.96z" class="B"/><path d="M152.36 337c1.67.4 5.86.2 5.4 2.77-1.7-.7-4.3-1.2-5.4-2.77z" class="C"/><path d="M362.4 336.9c.97.45 2.6.53 2.74 1.86l1.68 8.13c-1.87-.76-1.2-3.18-1.63-4.83.02-2.35-1.44-3.5-2.8-5.16zm-8 1.04c.75.1 1.5.26 2.22.44.87 3.57 1.98 6.95 3.2 10.4-1.05-.48-2.14-.73-2.7-1.83-1.55-2.7-2.3-5.95-2.72-9.02zm4.6.32a13.23 13.23 0 0 1 2.83.84c1.3 2.82 2.06 5.94 2.8 8.95-1.08-.02-2.13-.16-3.15-.4-1.62-2.76-2.24-6.23-2.5-9.4z" class="D"/><path d="M121.84 346.16c-.35 4.98-1.02 9.57.32 14.5 1.62-1.2 2-4.04 3.52-5.6-1.03 4.85-.83 9.02-.25 13.9-.5 5.48-4.32 9.5-8.9 12.18.25-1.35.6-2.73.7-4.1-.77-2.87-2.73-5.1-2.64-8.18.14-2.94 1.3-5.85 1.4-8.8-.3-1.78-1.26-3.44-1.76-5.2.03-1.54.46-3.1 1.07-4.52 1.94-1.7 4.3-2.94 6.55-4.2zm-46.7 2.1c1.66 1.17 2.97 2.8 4.66 3.92 2.22.96 4.74 1.1 6.98 2.05l.1.9c-1.92.18-3.8.14-5.72.2 2.83 3.5 7.92 2.56 11.9 2.68 2.98-.2 7.88-.74 9.98-3-2.64-.16-5.27-.02-7.9-.22 1.24-1.2 3.37-1.27 5-1.7 2.72-.45 5.18-1.7 7.85-2.3 2.23-.28 2.6 1.64 3.48 3.2-3.04 1.82-6.98 2.18-10 4.43-.98 2.45-1.16 5.82-.5 8.37 1.1 1.82 2.76 3.54 4.6 4.63 2.05.2 4.18-.22 6.24-.2 3.15 3.22 3.6 7.7.72 11.25-3.2 3-7.83 4.57-11.95 5.8-5.42.8-10.98.96-16.45 1.07.92.66 1.8 1.26 2.93 1.48 6.98 1.58 14.12 1 20.95-.97 2.07-1.1 3.86-2.7 5.88-3.92-2.2 4.3-4.96 7.7-8.55 10.9 3.28-.52 5.4-3.07 8.6-4 3.92-.75 3.27-7.02 5.35-9.66l.9-.07c.04 6.3-3.17 12.63-4.94 18.6 1.54-1.22 3.38-2.56 4.37-4.26 1.03-2.45.4-5.8 1.86-8.1 1.14-2.15 2.46-3.94 2.76-6.45.46-2.1.18-4.16 1.6-5.82-.16 4-.98 7.88-.83 11.9.12 2.18-.02 4.15 1.6 5.82l.3-3.72.83.06c1.5 3.43 2.1 7.04 2.4 10.75.4 4.6 2.84 8.26 4.3 12.42.92 7.97-.54 15.56-2.9 23.15-2.18 8.4-6.58 15.8-12.02 22.48h-3.85c4.88-6.25 8.33-14.04 10.26-21.7-1.88.22-3.76.52-5.6.94 0 2.03 1.75 1.28 2.7 2.62l-3.4 1.35c.53 1.67 1.5 2.63.4 4.35l-2.5-.5-.1 1.73c-1.02 1.04-2.15 1.96-3.16 3 1.2-.14 2.4-.32 3.58-.48-4.02 4.13-9 4.94-14.37 6.07-.23 1.6 1.75 2 2.86 2.6h-3.96c-1.67-1.75-3.7-1.8-5.96-2.06.23.7.48 1.38.75 2.06H87.1c-2.47-1.6-5.3-2.77-6.22-5.8-2.4-7.6-2.58-14.93-7.32-21.76-2.92-3.66-2.9-7.9-2.47-12.36.53-3.24 2.85-6.1 3.54-9.33 1.2-6.73-.27-12.76-.33-19.33h1.35c.14 5.6 1.48 11 1.2 16.6-.16 4.96.03 9.93.54 14.87.7-.6 1.05-1.32 1.07-2.16.4-5.76 2.4-11.08 2.23-16.9.38-5.24-1.46-10.22-1.48-15.36l2.56-.58c-1.32-2.94-3.63-4.8-5.7-7.15-.38-3.5.46-7.02-.37-10.57-1.07-4.93.06-9.83-1.1-14.74-.5-2.43-.08-4.76.5-7.13zm32.63 9.64l-2.56 3.4c-.75 2-.47 4.46-.16 6.52l.92.06c.2-2.13-.42-5.15 1.05-6.87 1.17-1.08 2.57-1.92 3.97-2.66 1.05 1.76 1.66 3.4 1.04 5.45-.8 2.88-3.72 3.36-4.77 6.08-2.73.4-4.67-3.5-4.37-5.78.85-2.53 1.65-6.06 4.88-6.2zm179.7 1.5c3.62-1.3 6.58-.06 9.97 1.1 1.82.78 4.08-1.7 5.93-.86 2.3.65 3.3 3.26 3.77 5.37 1.67 9.3 3.7 18.43.6 27.7-1.04 3.65-2.53 7.33-6.56 8.42-1.23-2.27-4.12-3.2-5.15-5.06 4.3-3.93 6.62-9.04 8.5-14.47.76-3.05.55-6.4.27-9.5-.1-2.96-2.26-5.92-5.07-6.8-1.66-.5-3.3.93-4.77 1.57.25-1.24.54-2.43.7-3.68-2.9-2.64-5.98-1.8-9.57-2.14-.2-.7.26-1.25 1.37-1.64zm-213.5 11.8c.66 3.86-1.56 7-.97 10.8.17 1.87-.5 3.4-.9 5.2-.96 3.06.43 5.8-1.55 8.6.74.76 2.14 1.4 2.26 2.5.8 3.46-.57 7.57-1.3 11-.73 2.6-1.06 5.9-2.9 7.93 1-5.78.37-11.44.38-17.24.48-8.64 1.85-17.1 3.4-25.6.36-.93.36-3.08 1.6-3.2z" class="B"/><path d="M169.84 371c.18 4.34-.3 8.7-.3 13.04-.25 1.6.48 3.1-1.43 3.76-.22-5.4-.23-11.72 1.73-16.8z" class="C"/><path d="M248.6 372.3c.34 2.1.47 4.3.2 6.4-2.6 2.3-6.74 3.52-8.8 6.32 1.87 2.13 5.93 2.74 8.6 3.22l.24.6c-2.36 1.3-6.35 1.56-6.52 4.94 1.8 1.9 4 3.36 5.82 5.24-1.12 1.45-3.87 4.2-5.83 3.63-1.16-3.33-1.6-7.12-2.5-10.5-.84-3.54-4.44-6.48-4.95-10.08 1.44-3 5.7-4.82 8.1-7.12 1.33-.88 4-3.57 5.63-2.68z" class="B"/><g class="C"><path d="M390.33 373.58l.14-.2-.34.45.2-.26z"/><path d="M390.13 373.84c-.1 1.1-.5 1.8-1.22 2.13-2.17-.7-.14-2.16 1.22-2.13zm2.14.6c2.26.52-2.26 5.37-2.88 2.84.38-1.16 1.76-2.4 2.88-2.84z"/></g><path d="M185.27 377.18c.55.5.55.5 0 0z" class="B"/><path d="M392.25 378.15c2.18.57-.68 3.72-2.02 2.56-.8-1.26.85-2.53 2.02-2.56z" class="C"/><path d="M184.3 379.24c.56.5.56.5 0 0zm-.43 1.9c1.96 1.16 3.14 2.6 3.84 4.76-.64 1.02-1.56 1.6-2.6 2.15-1.24-2.17-1.34-4.47-1.24-6.9z" class="B"/><path d="M131.22 382.1l.73-.4.73.4v.82l-.73.4-.73-.4v-.8z" class="C"/><path d="M181.83 382.16c.03 3.5 1.1 6.95 1.04 10.43-2.5.48-1.2-1.75-2.9-2.65-.02 3 .3 5.9-.05 8.93l-.8-.27c-1.98-5.4-.22-9.93 1.1-15.2.36-.53.9-.95 1.6-1.23z" class="B"/><path d="M392.2 381.95c2.97-.7 1.17 2.93-.76 1.8-.33-.65-.07-1.25.76-1.8z" class="C"/><path d="M207.4 384.62c1.18 1.15.27 4.52-1.06 5.15l-.45-2.53-1.85 2.48c-2.9-2.28-8.37-2.3-10.82.58-.27 2.3 1.62 5.05-.88 6.53l-.6-3.67c-1.02-.56-2.2-.6-3.52-.1-6.94 12.5-.7 29.94 12.58 35.3-.17 3.63-.54 6.82.28 10.45-3.52-1.8-6.25-5.1-9.16-7.74-2.68-3.22-6.04-6.77-7.15-10.88-1.28-4.36-3.37-8.9-3.6-13.37-.33-4.75 1.5-9.75 3.78-13.85 2-3.9 6.45-6.17 10.32-7.85 2.12-.93 4.65.94 6.62-.26 1.86-.93 3.6-1.23 5.5-.23zm55.18-.15c1.42 2.7.57 5.3.2 8.17-.5 2.66-.93 6.37-3.05 8.27-1.24.18-2.2-.13-2.88-.9 1.52-2.73 4.14-3.04 3.4-6.94-.88-5-6.27-4.5-10.1-4.9l.2-.78c4.15-1.7 7.63-4.56 12.22-2.9z" class="B"/><path d="M130.34 385.25c2.5-1.47 2.4.62 1.4 2.14-1.28 1.82-2.55-1.1-1.4-2.14zm264.4 1.03c1.5 2.1 1.16 3.74-1.2 4.86l1.16-3-2.37-.5c.77-1 1.13-1.27 2.4-1.35z" class="C"/><path d="M200.84 389c-.87 3.18-1.86 6.2-1.8 9.56l.73.1c.4-2.75-.97-5.3 2.76-5.83-.5 2.45-1.28 4.6-.7 7.16.58 3.8 3.28 6.56 5.2 9.8-2.57-1.62-4.52-3.95-7.07-5.58 1.2 2.5 3.47 4.48 5.15 6.7 1.66 2.2 4.64 3.17 6.37 5.34-.02.5-.2.96-.58 1.42-4.2-3.07-8.6-5.3-11.77-9.57.88 5.64 5.56 7.2 9.12 10.96-1.47 1.8-2.83-.24-4.37-.93-4.3-2.68-6.33-6.76-8.9-10.83.24 5.1 5.16 9.77 8.6 13.1 1.2 1.47-1.18 1.8-1.88.9-1.92-1.8-4.04-3.3-5.96-5.07-2.34-3.27-3.83-6.72-4.28-10.74l-1.25-.13c.66 4.85 3.14 9.55 5.88 13.55 1.86 2.8 4.56 4.08 7.05 6.16-.32 1.17-1 1.87-2.05 2.1-3.5-2.4-6.57-5.7-9.3-8.94-1.8-1.97-2.15-4.62-2.92-7.12-1.16-3.95-1.65-8.04-1.23-12.14.33-1.82 1.02-4.25 2.94-4.97l-.28 3.67 3.4.7c.45 1-.13 4.48 1.26 4.43.1-2.28.01-4.48.2-6.73 1.65-.4 1.5 3.8 2.7 4.8-.05-4.68-.98-8.45 3-11.87zm-24.82 1.02l.84.06c.14 3.42.22 6.77.9 10.13.67 2.66-.73 4.85-2.53 6.65-.22-5.47-.73-11.53.78-16.84zm21.75-.08c-.28 1.65-.73 2.84-1.85 4.1-.97-.73-1.23-1.82-1.6-2.92 1.07-.64 2.23-.95 3.45-1.18zm-67.45 2.18l.72-.4.7.4v.83l-.72.4-.72-.4v-.82z" class="B"/><path d="M94.46 395.2c.57-.8 3.34-.86 3 .52-.57.77-3.35.86-3-.52z" class="C"/><path d="M298.12 399.87c1.47 1.63 2.28 3.93 3.16 5.9.4 1.23 1.24 2.5-.18 3.42-1.48-2.44-2.27-4.9-4.8-6.48-3-2.16-7.64-5.44-11.5-4-2.23.48-1.5 5.44-3.67 5.05-1.92-1.42.16-3.25.64-4.88-2.06.05-4.07-.05-5.93.97-2.2 1.22-3.95 3.25-5.92 4.8.54-1.55 1.17-3.05 1.76-4.58-3 .95-7.13 2-9.12 4.58-1.22 1.44-.4 4.65-2.4 5.17-.2-1.84-.3-3.77-.05-5.6 2.22-3.07 5.33-5.95 9-7.15 9.36-4 20.58-2.88 29.02 2.8z" class="B"/><path d="M122 397c-.53 1.7-1.26 5.3-3.2 5.84.1-2.16 1.14-4.85 3.2-5.84zm-26.54 1.26c1.02-.72 2.06-.73 3.1-.03.5 1.44-3.6 1.5-3.1.03zm11.84-.16c.87-.28 1.6-.25 2.2.1.67 1.4-2.44 2.3-3.4 2-1.75-.8.24-1.9 1.2-2.1zm-7.77 2.27l.7 3.67c-1.78 1.38-3.17-.5-4.02-1.92a12.06 12.06 0 0 1 3.33-1.75zm12.24.67c-1 1.3-3.03 2.57-2.9 4.33l2.23.28c-.45.73-1.07 1.15-1.88 1.24-1.14-1.06-2.1-2.22-2.55-3.75 1.64-.85 3.36-1.5 5.1-2.1z" class="C"/><path d="M277.56 400.85c1.34.84 1.9 2.67 2.85 3.94 1.52.01 3-.2 4.52-.25 1.1.5 2.07 1.35 3.04 2.07-.64-1.3-3.13-3.74-2.75-5.04 1.25-.36 2.58-.5 3.88-.42 1.74 1.2 3.05 3.13 4.53 4.65l-.4-2.84c2.44.58 3.88 4.1 4.73 6.22.45 1.96 1.56 5.2.04 6.9-1.07-1.2-1.7-2.9-2.95-3.9l.92 7.55c-2.44-2.12-1.72-7.4-4.9-9.7.83 3.68 1.76 7.2 1.46 11-.2 2.14.13 5.06-2.4 5.88-.28-5.9 1.84-12.25-2.8-16.9 1.92 6.33 1.33 12.77-.18 19.12-.74 3.52-3.23 5.73-6.05 7.68.75-2.65 2.2-4.9 3.28-7.4 1.73-6.03 2.34-13.8-.96-19.4 1.5 6.25 1.05 12.85-1.68 18.7-1.46 3.13-1.73 6.16-4.44 8.54-4.2 4.06-6 10.9-13.04 10.7 1.62-2.06 3.64-3.45 5.58-5.18 3.57-3.1 6.52-6.92 9.1-10.86 1.28-2.62 1.7-5.72 2.42-8.54.83-4.07 1.52-8.95-1.3-12.44-1.38-1.8-3.66-3.36-5.86-1.9 1.6 1.9 4.2 1.75 5.18 4.57 1.53 4.55.02 10.48-1.86 14.78-4.44 1.2-7.75 2.87-11.2 5.9-4.46 4.24-10.52 6.63-16.55 7.5-3.73.74-7.77-.9-11.15-2.38-5.55-2.24-9.28-8.1-13.6-11.4.35 1.25.66 2.46 1.5 3.5 3.1 3.74 6.05 7.26 10.38 9.62 5.65 2.77 11.1 5.02 17.47 3.1 8.08-1.57 11.5-8.85 18.5-12.43.9-.35 3.28-1.53 3.44.16-1.27 1.72-4.2 1.96-5.8 3.5-2.7 2.5-6.66 4.3-8.26 7.57 1.95-.63 3-2.06 4.56-3.3 1.83-1.57 4.18-2.6 6.4-3.54-3.1 4.5-7.42 8.2-12.26 10.67-6.74 2.3-13.88 1.22-20.38-1.33-5.35-3.06-10.4-4.65-14.65-9.4-1.56-2.23-2.15-4.6-4.5-6.2 1.23 3.38 2.97 6.66 5.22 9.5 2 2.56 4.95 3.1 7.27 5.4-5.62-1.23-9-4.93-13.08-8.63-1.53-2.1-1.85-5.23-3.73-7.03.38 7.02 5.1 10.44 9.06 15.36-4.7-1.12-7.7-4.32-10.74-7.85-1.6-2.3-2.26-5.37-1.53-8.1l2.6-.35c.3-1.66.45-3.35.77-5 2.88-1 .7 4.52 2.73 4.52.07-1.53.07-3.05.14-4.58 2.8.42 3.46 1.6 4.92 3.78.13-3.35-.13-6.6.18-9.92 2.8-.52 1.9 3.13 2.93 4.85 1.22 1.66 3.9 2.52 5.9 2.46 7.92-1.22 15.93-6.2 23.98-6.2 5.36.8 10.73.65 16.04 1.86 1.46.15 4.82.8 5.4-1.06-1.04-2.97-3.55-5.5-6.16-7.16-2.77-1.84-6.92-.8-10.14-1.02-.86-3.82 1.55-5.46 3.94-7.86.86 1.23 1.3 2.78 2.28 3.92 2.04 1.16 2.87-2.06 4.75-2.08 1.98.43 3.86 1.37 5.77 2.03-1.36-1.25-2.94-2.1-4.53-3 .15-.5.74-.87 1.8-1.13a39.28 39.28 0 0 0 .44-1.8z" class="B"/><path d="M120.98 403.76c1.47.96 2.1 1.15 1.75 3.06-.84.1-1.66.07-2.45-.1-.4-1.64-.18-2.63.7-2.96zm48.1 2.47c5 5.85 4.88 13.25 9.36 19.3 4.5 8.3 12.75 14.6 20.75 19.3 3.76 3 8.2 3.47 12.38 5.6 4.42 2.18 8.9 3.03 13.68 4.36 8.47 2.17 16.16 1.02 24.75 1.3 3.3.14 6.62.01 9.93.05-.83.96-2.16 1.08-3.32 1.38-8.16 1.68-16.85 1.16-25.13.85-6.24-.18-11.35-2.77-17.13-4.68-9.5-3-18.14-7.35-26.67-12.4-4.84-3.5-8.96-8.44-13.43-12.54-4.5-4.16-8.3-8.9-11.98-13.77 5.47 2.75 9.08 10.93 14.67 13-1.03-3.66-3.17-6.9-4.34-10.55-1.18-3.73-2.64-7.4-3.52-11.2z" class="C"/><path d="M178.82 406.2l1.07 8.77c-2.8-1.18-4.47-7.68-1.07-8.77z" class="B"/><path d="M110.2 408.26c1.64.1.84 2.34-.36 2.54-1.56-.12-.73-2.3.36-2.54z" class="C"/><path d="M225.22 413.22c3.1-.5 5.93 1.14 5.93 4.52-3.72-2.15-7.64-2.62-11.2.18 1.17 1.28 2.52 2.1 3 3.88-2.02-.83-4.46-2.5-6.68-2.2-2.2 1.45-4.8 3.28-5.78 5.82-1.35 3.3-3.58 5.7-2.6 9.47 2.53 6.6 8.23 10.4 14.77 12.44l.25.8c-5.2.35-7.94-2.97-12.6-4.4-1.8-.73-4.2-1.1-5.6-2.47-1.82-3.94-2.28-8.9-.4-12.93 1.64-4.82 6.03-8.34 10.38-10.65 3.32-1.7 6.88-3.7 10.54-4.46z" class="B"/><path d="M397.25 413.4c1.83.16-.7 4.27-2 3.2-.7-1.15.94-2.9 2-3.2zm-286.07.63c2.9-.75 1.08 3.07-.76 1.8-.35-.7-.1-1.3.76-1.8zm3.7 1.23c-.46 2.05-.93 5.84-3.77 5.57.16-2.23 2.26-4.1 3.77-5.57zm282.66 2.94c.6.98-1.35 3.04-2.35 2.36-.9-1.24 1.12-3.16 2.35-2.36zm2.24 1.03c-.38 3.64-.3 7.02-4.7 7.9.8-1.46 1.9-2.67 2.95-3.94l-3.1.38c1.28-1.83 3-3.16 4.86-4.35z" class="C"/><path d="M213.3 423.08l.72-.42.73.4.01.82-.72.42-.73-.4v-.82zm-.16 2.12c1.48-.36 2.37 1.38.8 2.03-1.52.3-2.3-1.3-.8-2.03z" class="B"/><path d="M400.1 426.33c-1.05 2.23-2.4 4.02-4.97 4.46-.53-2.46 3.26-3.58 4.97-4.46zm-276.78 1.77l.72-.4.73.4v.82l-.73.4-.73-.4.01-.82z" class="C"/><path d="M211.02 427.93c1.3.3.8 2.88 1.15 3.93.5 4.43 3.32 7.6 5.55 11.2-3.13-1.3-5.27-4.9-7.38-7.45-.72-2.34-1-5.67.68-7.7z" class="B"/><path d="M400.14 431.36c-.85 2.42-2.6 3.37-5.05 3.68.14-2.3 3.32-2.83 5.05-3.68zM122.3 433.1c.94-.48 1.76-.45 2.44.08 1 1.83-2.13 2.75-3.23 1.65-.33-.63-.06-1.2.8-1.73zm264.02.08c1.18-1.26 3.6-.24 2.44 1.5-1.18 1.14-3.4.2-2.44-1.5zm4.7 1.77c1.54.22 1.7 3.06 3 3.84l3.82-1.66c-2.13 3.78-6.12 4.68-8.76 7.98-2.36 2.96-5.47 2.85-8.94 2.82-.1-1.6 3.4-1.46 4.5-1.98.27-1.1-1.74-2.05-2.4-2.8a64.76 64.76 0 0 0 3.41-.42c.67-.78-.9-1.86-1.24-2.6 1.4-.1 3.78.5 4.78-.65.54-1.7.26-3.38 1.82-4.54zm-5.74 1.35c1.16-1.17 3.56-.36 2.45 1.42-1.16 1.2-3.56.34-2.45-1.42zm-259.38 2c-1.93 7.65-5.38 15.44-10.26 21.7h-9.34c-1.1-.6-3.1-1-2.86-2.6 5.38-1.13 10.35-1.94 14.37-6.07l-3.58.48c1-1.05 2.14-1.97 3.16-3l.1-1.73 2.5.5c1.1-1.72.14-2.68-.4-4.35 1.12-.47 2.27-.9 3.4-1.35-.96-1.34-2.7-.6-2.7-2.62 1.85-.42 3.73-.72 5.6-.94zm219.03 1.9c-1.73 3.4-4.17 5.98-4.9 9.87-.82 3.8-2.82 7.03-5.34 9.94h-6.76c3.07-4.25 6.5-8.2 9.73-12.34 2.36-2.74 4.12-5.53 7.26-7.47zm20.07 0c1.87 1.03 3.8 3.22 5.9 3.53 2.23-1.67 2.8-2.67 5.75-1.65-.96 1.82-3.17 4.5-5.48 3.92-2.5-1.24-5-3.15-6.16-5.8zm-103.88 3c-1.08 2.68-2.4 3.1-5.05 3.74 1.44-1.6 3.14-2.77 5.05-3.74z" class="C"/><path d="M225.06 448.07c5.2-.14 10.6-.5 15.78.12 3.76 1.17 7 2.32 11.04 2.18-1.22 1.27-1.83 1.35-3.55 1.17-8.12-1.13-15.3.36-23.25-2.6l-.02-.86z" class="B"/><path d="M300.08 450.33l-.75 1.14c-4.14 3.14-8.38 6.07-12.97 8.53h-13.78c4.25-1.98 8.72-3.34 12.95-5.4 4.92-1.36 9.74-2.5 14.55-4.26zm-137.08.75a70.9 70.9 0 0 1 13.25 5.63c3.54 1.9 7.47 1.28 10.95 3.3h-11.63c-3.44-3.4-9.88-4.8-12.57-8.92z" class="C"/><path d="M131.3 453.27c1.8-.56 2.15-.3 3.5.9 2.55 2.4 5.62 3.82 8.46 5.84h-9.3c-1.12-1.82-3.38-4.48-2.67-6.73zm222.42-.05c.76 2.77-.36 4.6-1.9 6.78h-6.18c1.8-1.68 3.3-3.6 4.83-5.52.92-1.1 1.72-2.18 3.26-1.26z" class="B"/><path d="M96.38 457.94c2.25.26 4.3.3 5.96 2.06h-5.2l-.75-2.06z" class="C"/><path d="M127.7 460h-2.75c.47-2.3 2.7-2.72 2.75 0z" class="B"/></svg>