<?xml version="1.0" encoding="UTF-8" standalone="no"?>
<!DOCTYPE svg PUBLIC "-//W3C//DTD SVG 1.1//EN"
 "http://www.w3.org/Graphics/SVG/1.1/DTD/svg11.dtd">
<!-- Generated by graphviz version 2.42.3 (20191010.1750)
 -->
<!-- Title: finite_state_machine Pages: 1 -->
<svg width="1467pt" height="756pt"
 viewBox="0.00 0.00 1467.43 756.00" xmlns="http://www.w3.org/2000/svg" xmlns:xlink="http://www.w3.org/1999/xlink">
<g id="graph0" class="graph" transform="scale(1 1) rotate(0) translate(36 720)">
<title>finite_state_machine</title>
<!-- start -->
<g id="node1" class="node">
<title>start</title>
<ellipse fill="black" stroke="black" cx="1.8" cy="-123" rx="1.8" ry="1.8"/>
</g>
<!-- NORMAL -->
<g id="node2" class="node">
<title>NORMAL</title>
<ellipse fill="none" stroke="black" cx="80.6" cy="-123" rx="36" ry="36"/>
<ellipse fill="none" stroke="black" cx="80.6" cy="-123" rx="40" ry="40"/>
<text text-anchor="middle" x="80.6" y="-120" font-family="Times,serif" font-size="10.00">NORMAL</text>
</g>
<!-- start&#45;&gt;NORMAL -->
<g id="edge1" class="edge">
<title>start&#45;&gt;NORMAL</title>
<path fill="none" stroke="black" d="M3.66,-123C6.73,-123 17.61,-123 30.22,-123"/>
<polygon fill="black" stroke="black" points="30.58,-126.5 40.58,-123 30.58,-119.5 30.58,-126.5"/>
</g>
<!-- NORMAL&#45;&gt;NORMAL -->
<g id="edge2" class="edge">
<title>NORMAL&#45;&gt;NORMAL</title>
<path fill="none" stroke="black" d="M69.78,-161.76C70.25,-172.64 73.86,-181 80.6,-181 85.02,-181 88.1,-177.4 89.82,-171.85"/>
<polygon fill="black" stroke="black" points="93.31,-172.19 91.42,-161.76 86.4,-171.09 93.31,-172.19"/>
<text text-anchor="middle" x="80.6" y="-183.8" font-family="Times,serif" font-size="14.00">[^&lt;]</text>
</g>
<!-- LT_SIGN -->
<g id="node5" class="node">
<title>LT_SIGN</title>
<ellipse fill="none" stroke="black" cx="209.82" cy="-160" rx="36" ry="36"/>
<text text-anchor="middle" x="209.82" y="-157" font-family="Times,serif" font-size="10.00">LT_SIGN</text>
</g>
<!-- NORMAL&#45;&gt;LT_SIGN -->
<g id="edge3" class="edge">
<title>NORMAL&#45;&gt;LT_SIGN</title>
<path fill="none" stroke="black" d="M119.43,-134C133.71,-138.15 150.08,-142.92 164.87,-147.22"/>
<polygon fill="black" stroke="black" points="164.24,-150.68 174.82,-150.11 166.2,-143.96 164.24,-150.68"/>
<text text-anchor="middle" x="147.21" y="-145.8" font-family="Times,serif" font-size="14.00">[&lt;]</text>
</g>
<!-- TAG_END -->
<g id="node3" class="node">
<title>TAG_END</title>
<ellipse fill="none" stroke="black" cx="1355.43" cy="-512" rx="36" ry="36"/>
<ellipse fill="none" stroke="black" cx="1355.43" cy="-512" rx="40" ry="40"/>
<text text-anchor="middle" x="1355.43" y="-509" font-family="Times,serif" font-size="10.00">TAG_END</text>
</g>
<!-- TAG_END&#45;&gt;NORMAL -->
<g id="edge33" class="edge">
<title>TAG_END&#45;&gt;NORMAL</title>
<path fill="none" stroke="black" d="M1344.22,-550.6C1328.22,-601.31 1291.96,-684 1225.77,-684 208.82,-684 208.82,-684 208.82,-684 104.67,-684 85.78,-311.63 82.36,-173.64"/>
<polygon fill="black" stroke="black" points="85.85,-173.26 82.12,-163.35 78.85,-173.42 85.85,-173.26"/>
</g>
<!-- ETAG_END -->
<g id="node4" class="node">
<title>ETAG_END</title>
<ellipse fill="none" stroke="black" cx="807.09" cy="-65" rx="36" ry="36"/>
<ellipse fill="none" stroke="black" cx="807.09" cy="-65" rx="40" ry="40"/>
<text text-anchor="middle" x="807.09" y="-62" font-family="Times,serif" font-size="10.00">ETAG_END</text>
</g>
<!-- ETAG_END&#45;&gt;NORMAL -->
<g id="edge42" class="edge">
<title>ETAG_END&#45;&gt;NORMAL</title>
<path fill="none" stroke="black" d="M774.95,-41.17C747.56,-22.61 705.84,0 665.15,0 208.82,0 208.82,0 208.82,0 162.09,0 125.98,-43.42 104.36,-78.67"/>
<polygon fill="black" stroke="black" points="101.26,-77.03 99.18,-87.42 107.29,-80.6 101.26,-77.03"/>
</g>
<!-- TAG_NAME -->
<g id="node6" class="node">
<title>TAG_NAME</title>
<ellipse fill="none" stroke="black" cx="349.64" cy="-324" rx="36" ry="36"/>
<text text-anchor="middle" x="349.64" y="-321" font-family="Times,serif" font-size="10.00">TAG_NAME</text>
</g>
<!-- LT_SIGN&#45;&gt;TAG_NAME -->
<g id="edge4" class="edge">
<title>LT_SIGN&#45;&gt;TAG_NAME</title>
<path fill="none" stroke="black" d="M233.58,-187.08C256.95,-214.89 293.43,-258.3 319.03,-288.77"/>
<polygon fill="black" stroke="black" points="316.51,-291.2 325.62,-296.6 321.87,-286.7 316.51,-291.2"/>
<text text-anchor="middle" x="277.81" y="-253.8" font-family="Times,serif" font-size="14.00">[\w&#45;]</text>
</g>
<!-- ETAG_START -->
<g id="node14" class="node">
<title>ETAG_START</title>
<ellipse fill="none" stroke="black" cx="349.64" cy="-182" rx="39.67" ry="39.67"/>
<text text-anchor="middle" x="349.64" y="-179" font-family="Times,serif" font-size="10.00">ETAG_START</text>
</g>
<!-- LT_SIGN&#45;&gt;ETAG_START -->
<g id="edge34" class="edge">
<title>LT_SIGN&#45;&gt;ETAG_START</title>
<path fill="none" stroke="black" d="M245.6,-165.55C262.07,-168.18 282.03,-171.37 299.98,-174.23"/>
<polygon fill="black" stroke="black" points="299.56,-177.71 309.99,-175.83 300.66,-170.8 299.56,-177.71"/>
<text text-anchor="middle" x="277.81" y="-174.8" font-family="Times,serif" font-size="14.00">[/]</text>
</g>
<!-- ERR_TAG -->
<g id="node16" class="node">
<title>ERR_TAG</title>
<ellipse fill="none" stroke="black" cx="507.33" cy="-64" rx="36" ry="36"/>
<text text-anchor="middle" x="507.33" y="-61" font-family="Times,serif" font-size="10.00">ERR_TAG</text>
</g>
<!-- LT_SIGN&#45;&gt;ERR_TAG -->
<g id="edge43" class="edge">
<title>LT_SIGN&#45;&gt;ERR_TAG</title>
<path fill="none" stroke="black" d="M242.99,-145.53C262.17,-137.19 287.13,-126.84 309.81,-119 337.92,-109.28 413.72,-88.65 462.54,-75.6"/>
<polygon fill="black" stroke="black" points="463.47,-78.98 472.23,-73.02 461.66,-72.21 463.47,-78.98"/>
<text text-anchor="middle" x="349.64" y="-121.8" font-family="Times,serif" font-size="14.00">others</text>
</g>
<!-- TAG_NAME&#45;&gt;TAG_END -->
<g id="edge6" class="edge">
<title>TAG_NAME&#45;&gt;TAG_END</title>
<path fill="none" stroke="black" d="M351.72,-360.31C356.36,-444.52 380.59,-646 506.33,-646 506.33,-646 506.33,-646 1225.77,-646 1275.93,-646 1312.63,-596.54 1333.71,-557.72"/>
<polygon fill="black" stroke="black" points="1336.94,-559.1 1338.48,-548.62 1330.74,-555.85 1336.94,-559.1"/>
<text text-anchor="middle" x="874.43" y="-648.8" font-family="Times,serif" font-size="14.00">[&gt;]</text>
</g>
<!-- TAG_NAME&#45;&gt;TAG_NAME -->
<g id="edge5" class="edge">
<title>TAG_NAME&#45;&gt;TAG_NAME</title>
<path fill="none" stroke="black" d="M336.52,-357.91C336.52,-369.21 340.89,-378.25 349.64,-378.25 355.52,-378.25 359.43,-374.17 361.35,-368.06"/>
<polygon fill="black" stroke="black" points="364.86,-368.29 362.77,-357.91 357.92,-367.33 364.86,-368.29"/>
<text text-anchor="middle" x="349.64" y="-381.05" font-family="Times,serif" font-size="14.00">[\w&#45;]</text>
</g>
<!-- ATTR_GAP -->
<g id="node7" class="node">
<title>ATTR_GAP</title>
<ellipse fill="none" stroke="black" cx="507.33" cy="-324" rx="36" ry="36"/>
<text text-anchor="middle" x="507.33" y="-321" font-family="Times,serif" font-size="10.00">ATTR_GAP</text>
</g>
<!-- TAG_NAME&#45;&gt;ATTR_GAP -->
<g id="edge7" class="edge">
<title>TAG_NAME&#45;&gt;ATTR_GAP</title>
<path fill="none" stroke="black" d="M385.97,-324C408.17,-324 437.01,-324 460.9,-324"/>
<polygon fill="black" stroke="black" points="461.15,-327.5 471.15,-324 461.15,-320.5 461.15,-327.5"/>
<text text-anchor="middle" x="428.7" y="-326.8" font-family="Times,serif" font-size="14.00">[^\w&#45;&gt;]</text>
</g>
<!-- ATTR_GAP&#45;&gt;TAG_END -->
<g id="edge9" class="edge">
<title>ATTR_GAP&#45;&gt;TAG_END</title>
<path fill="none" stroke="black" d="M529.44,-295.16C556.4,-261.97 606.42,-212 663.15,-212 663.15,-212 663.15,-212 1225.77,-212 1333.19,-212 1352.07,-376.46 1354.63,-461.85"/>
<polygon fill="black" stroke="black" points="1351.13,-461.94 1354.87,-471.85 1358.13,-461.77 1351.13,-461.94"/>
<text text-anchor="middle" x="942.15" y="-214.8" font-family="Times,serif" font-size="14.00">[&gt;]</text>
</g>
<!-- ATTR_GAP&#45;&gt;ATTR_GAP -->
<g id="edge8" class="edge">
<title>ATTR_GAP&#45;&gt;ATTR_GAP</title>
<path fill="none" stroke="black" d="M492.72,-356.96C492.48,-368.57 497.36,-378 507.33,-378 514.2,-378 518.64,-373.54 520.68,-366.98"/>
<polygon fill="black" stroke="black" points="524.16,-367.32 521.95,-356.96 517.22,-366.43 524.16,-367.32"/>
<text text-anchor="middle" x="507.33" y="-380.8" font-family="Times,serif" font-size="14.00">[^\w&#45;&gt;]</text>
</g>
<!-- ATTR_NAME -->
<g id="node8" class="node">
<title>ATTR_NAME</title>
<ellipse fill="none" stroke="black" cx="664.15" cy="-371" rx="38.92" ry="38.92"/>
<text text-anchor="middle" x="664.15" y="-368" font-family="Times,serif" font-size="10.00">ATTR_NAME</text>
</g>
<!-- ATTR_GAP&#45;&gt;ATTR_NAME -->
<g id="edge10" class="edge">
<title>ATTR_GAP&#45;&gt;ATTR_NAME</title>
<path fill="none" stroke="black" d="M540.12,-339.4C548.04,-342.87 556.6,-346.32 564.74,-349 580.99,-354.36 599.17,-358.83 615.44,-362.31"/>
<polygon fill="black" stroke="black" points="614.79,-365.75 625.29,-364.35 616.21,-358.9 614.79,-365.75"/>
<text text-anchor="middle" x="585.97" y="-361.8" font-family="Times,serif" font-size="14.00">[\w&#45;]</text>
</g>
<!-- ATTR_NAME&#45;&gt;ATTR_GAP -->
<g id="edge14" class="edge">
<title>ATTR_NAME&#45;&gt;ATTR_GAP</title>
<path fill="none" stroke="black" d="M634.09,-345.7C625.9,-339.87 616.63,-334.4 607.19,-331 590.43,-324.97 571.07,-322.67 553.94,-322.07"/>
<polygon fill="black" stroke="black" points="553.66,-318.56 543.6,-321.9 553.55,-325.56 553.66,-318.56"/>
<text text-anchor="middle" x="585.97" y="-333.8" font-family="Times,serif" font-size="14.00">others</text>
</g>
<!-- ATTR_NAME&#45;&gt;ATTR_NAME -->
<g id="edge11" class="edge">
<title>ATTR_NAME&#45;&gt;ATTR_NAME</title>
<path fill="none" stroke="black" d="M651.04,-407.7C651.3,-419.05 655.67,-427.96 664.15,-427.96 669.85,-427.96 673.69,-423.94 675.68,-417.86"/>
<polygon fill="black" stroke="black" points="679.18,-418.13 677.26,-407.7 672.26,-417.04 679.18,-418.13"/>
<text text-anchor="middle" x="664.15" y="-430.76" font-family="Times,serif" font-size="14.00">[\w&#45;]</text>
</g>
<!-- EQUAL_SIGN -->
<g id="node9" class="node">
<title>EQUAL_SIGN</title>
<ellipse fill="none" stroke="black" cx="942.15" cy="-426" rx="40.28" ry="40.28"/>
<text text-anchor="middle" x="942.15" y="-423" font-family="Times,serif" font-size="10.00">EQUAL_SIGN</text>
</g>
<!-- ATTR_NAME&#45;&gt;EQUAL_SIGN -->
<g id="edge12" class="edge">
<title>ATTR_NAME&#45;&gt;EQUAL_SIGN</title>
<path fill="none" stroke="black" d="M701.63,-383.12C720.92,-389.17 745.1,-396.21 767.09,-401 808.77,-410.08 856.79,-416.69 891.83,-420.83"/>
<polygon fill="black" stroke="black" points="891.47,-424.31 901.8,-421.98 892.27,-417.36 891.47,-424.31"/>
<text text-anchor="middle" x="807.09" y="-416.8" font-family="Times,serif" font-size="14.00">[=]</text>
</g>
<!-- ATTR_SPACE -->
<g id="node10" class="node">
<title>ATTR_SPACE</title>
<ellipse fill="none" stroke="black" cx="807.09" cy="-321" rx="39.2" ry="39.2"/>
<text text-anchor="middle" x="807.09" y="-318" font-family="Times,serif" font-size="10.00">ATTR_SPACE</text>
</g>
<!-- ATTR_NAME&#45;&gt;ATTR_SPACE -->
<g id="edge13" class="edge">
<title>ATTR_NAME&#45;&gt;ATTR_SPACE</title>
<path fill="none" stroke="black" d="M702.42,-362.93C717.16,-359.3 734.13,-354.57 749.09,-349 753.57,-347.33 758.17,-345.43 762.71,-343.41"/>
<polygon fill="black" stroke="black" points="764.31,-346.53 771.92,-339.16 761.37,-340.18 764.31,-346.53"/>
<text text-anchor="middle" x="735.1" y="-359.8" font-family="Times,serif" font-size="14.00">[\s]</text>
</g>
<!-- EQUAL_SIGN&#45;&gt;TAG_END -->
<g id="edge23" class="edge">
<title>EQUAL_SIGN&#45;&gt;TAG_END</title>
<path fill="none" stroke="black" d="M966.63,-458.62C976.61,-471.86 988.68,-487.05 1000.54,-500 1062.64,-567.83 1096.79,-572.94 1187.34,-589 1220.1,-594.81 1230.93,-600.34 1262.21,-589 1284.45,-580.93 1305.09,-564.9 1321.17,-549.54"/>
<polygon fill="black" stroke="black" points="1324.05,-551.61 1328.69,-542.09 1319.13,-546.64 1324.05,-551.61"/>
<text text-anchor="middle" x="1148.66" y="-587.8" font-family="Times,serif" font-size="14.00">[&gt;]</text>
</g>
<!-- ATTR_VAL -->
<g id="node11" class="node">
<title>ATTR_VAL</title>
<ellipse fill="none" stroke="black" cx="1224.77" cy="-512" rx="36" ry="36"/>
<text text-anchor="middle" x="1224.77" y="-509" font-family="Times,serif" font-size="10.00">ATTR_VAL</text>
</g>
<!-- EQUAL_SIGN&#45;&gt;ATTR_VAL -->
<g id="edge20" class="edge">
<title>EQUAL_SIGN&#45;&gt;ATTR_VAL</title>
<path fill="none" stroke="black" d="M970.25,-455.18C987.63,-471.8 1011.65,-491.21 1037.2,-501 1082.9,-518.52 1139.51,-519.21 1178.31,-516.83"/>
<polygon fill="black" stroke="black" points="1179.03,-520.28 1188.76,-516.08 1178.54,-513.3 1179.03,-520.28"/>
<text text-anchor="middle" x="1073.59" y="-518.8" font-family="Times,serif" font-size="14.00">[^\s&#39;&quot;&gt;]</text>
</g>
<!-- VAL_SPACE -->
<g id="node12" class="node">
<title>VAL_SPACE</title>
<ellipse fill="none" stroke="black" cx="1073.59" cy="-424" rx="36.28" ry="36.28"/>
<text text-anchor="middle" x="1073.59" y="-421" font-family="Times,serif" font-size="10.00">VAL_SPACE</text>
</g>
<!-- EQUAL_SIGN&#45;&gt;VAL_SPACE -->
<g id="edge21" class="edge">
<title>EQUAL_SIGN&#45;&gt;VAL_SPACE</title>
<path fill="none" stroke="black" d="M982.69,-425.39C996.57,-425.17 1012.28,-424.93 1026.64,-424.71"/>
<polygon fill="black" stroke="black" points="1026.87,-428.21 1036.81,-424.55 1026.76,-421.21 1026.87,-428.21"/>
<text text-anchor="middle" x="1009.87" y="-427.8" font-family="Times,serif" font-size="14.00">[\s]</text>
</g>
<!-- ATTR_QVAL -->
<g id="node13" class="node">
<title>ATTR_QVAL</title>
<ellipse fill="none" stroke="black" cx="1224.77" cy="-334" rx="37.36" ry="37.36"/>
<text text-anchor="middle" x="1224.77" y="-331" font-family="Times,serif" font-size="10.00">ATTR_QVAL</text>
</g>
<!-- EQUAL_SIGN&#45;&gt;ATTR_QVAL -->
<g id="edge22" class="edge">
<title>EQUAL_SIGN&#45;&gt;ATTR_QVAL</title>
<path fill="none" stroke="black" d="M972.72,-399.41C990.23,-385.19 1013.56,-368.72 1037.2,-359.4 1082.37,-341.58 1137.93,-335.89 1176.62,-334.25"/>
<polygon fill="black" stroke="black" points="1177.19,-337.73 1187.07,-333.89 1176.95,-330.74 1177.19,-337.73"/>
<text text-anchor="middle" x="1073.59" y="-367.4" font-family="Times,serif" font-size="14.00">[&quot;\&#39;] ①</text>
</g>
<!-- ATTR_SPACE&#45;&gt;TAG_END -->
<g id="edge17" class="edge">
<title>ATTR_SPACE&#45;&gt;TAG_END</title>
<path fill="none" stroke="black" d="M845.56,-312.53C941.73,-291.67 1194.56,-242.69 1262.21,-288 1319.98,-326.69 1341.6,-408.85 1349.66,-462.18"/>
<polygon fill="black" stroke="black" points="1346.2,-462.7 1351.05,-472.11 1353.13,-461.72 1346.2,-462.7"/>
<text text-anchor="middle" x="1073.59" y="-280.8" font-family="Times,serif" font-size="14.00">[&gt;]</text>
</g>
<!-- ATTR_SPACE&#45;&gt;ATTR_GAP -->
<g id="edge18" class="edge">
<title>ATTR_SPACE&#45;&gt;ATTR_GAP</title>
<path fill="none" stroke="black" d="M768.04,-315.5C748.65,-312.97 724.67,-310.25 703.11,-309 668.54,-306.99 659.75,-306.79 625.19,-309 601.23,-310.53 574.66,-313.81 552.93,-316.92"/>
<polygon fill="black" stroke="black" points="552.38,-313.46 542.99,-318.37 553.39,-320.39 552.38,-313.46"/>
<text text-anchor="middle" x="664.15" y="-311.8" font-family="Times,serif" font-size="14.00">others</text>
</g>
<!-- ATTR_SPACE&#45;&gt;ATTR_NAME -->
<g id="edge16" class="edge">
<title>ATTR_SPACE&#45;&gt;ATTR_NAME</title>
<path fill="none" stroke="black" d="M767.46,-321.46C752.57,-322.68 735.66,-325.38 721.11,-331 714.82,-333.43 708.59,-336.73 702.69,-340.41"/>
<polygon fill="black" stroke="black" points="700.69,-337.53 694.32,-345.99 704.58,-343.35 700.69,-337.53"/>
<text text-anchor="middle" x="735.1" y="-333.8" font-family="Times,serif" font-size="14.00">[\w&#45;]</text>
</g>
<!-- ATTR_SPACE&#45;&gt;EQUAL_SIGN -->
<g id="edge19" class="edge">
<title>ATTR_SPACE&#45;&gt;EQUAL_SIGN</title>
<path fill="none" stroke="black" d="M838.62,-345.09C857.37,-359.88 881.57,-378.98 901.75,-394.91"/>
<polygon fill="black" stroke="black" points="899.82,-397.85 909.84,-401.29 904.16,-392.35 899.82,-397.85"/>
<text text-anchor="middle" x="874.43" y="-381.8" font-family="Times,serif" font-size="14.00">[=]</text>
</g>
<!-- ATTR_SPACE&#45;&gt;ATTR_SPACE -->
<g id="edge15" class="edge">
<title>ATTR_SPACE&#45;&gt;ATTR_SPACE</title>
<path fill="none" stroke="black" d="M794.75,-358.51C795.12,-369.67 799.23,-378.35 807.09,-378.35 812.38,-378.35 815.97,-374.43 817.87,-368.48"/>
<polygon fill="black" stroke="black" points="821.34,-368.93 819.44,-358.51 814.43,-367.84 821.34,-368.93"/>
<text text-anchor="middle" x="807.09" y="-381.15" font-family="Times,serif" font-size="14.00">[\s]</text>
</g>
<!-- ATTR_VAL&#45;&gt;TAG_END -->
<g id="edge28" class="edge">
<title>ATTR_VAL&#45;&gt;TAG_END</title>
<path fill="none" stroke="black" d="M1260.93,-512C1274.46,-512 1290.17,-512 1304.81,-512"/>
<polygon fill="black" stroke="black" points="1305.24,-515.5 1315.24,-512 1305.24,-508.5 1305.24,-515.5"/>
<text text-anchor="middle" x="1288.82" y="-514.8" font-family="Times,serif" font-size="14.00">[&gt;]</text>
</g>
<!-- ATTR_VAL&#45;&gt;ATTR_GAP -->
<g id="edge29" class="edge">
<title>ATTR_VAL&#45;&gt;ATTR_GAP</title>
<path fill="none" stroke="black" d="M1195.97,-533.78C1156.94,-562.11 1082.64,-608 1010.87,-608 663.15,-608 663.15,-608 663.15,-608 556.2,-608 522.7,-450.82 512.55,-370.33"/>
<polygon fill="black" stroke="black" points="515.98,-369.49 511.32,-359.97 509.03,-370.31 515.98,-369.49"/>
<text text-anchor="middle" x="874.43" y="-610.8" font-family="Times,serif" font-size="14.00">[\s]</text>
</g>
<!-- ATTR_VAL&#45;&gt;ATTR_VAL -->
<g id="edge27" class="edge">
<title>ATTR_VAL&#45;&gt;ATTR_VAL</title>
<path fill="none" stroke="black" d="M1212.78,-546.01C1212.84,-557.14 1216.84,-566 1224.77,-566 1230.11,-566 1233.66,-562 1235.44,-556"/>
<polygon fill="black" stroke="black" points="1238.92,-556.39 1236.77,-546.01 1231.98,-555.46 1238.92,-556.39"/>
<text text-anchor="middle" x="1224.77" y="-568.8" font-family="Times,serif" font-size="14.00">[^\s&gt;]</text>
</g>
<!-- VAL_SPACE&#45;&gt;TAG_END -->
<g id="edge30" class="edge">
<title>VAL_SPACE&#45;&gt;TAG_END</title>
<path fill="none" stroke="black" d="M1110.28,-425.14C1148.87,-427.37 1211.64,-433.9 1262.21,-453 1280.66,-459.97 1299.31,-470.99 1314.96,-481.62"/>
<polygon fill="black" stroke="black" points="1313.12,-484.61 1323.32,-487.46 1317.13,-478.87 1313.12,-484.61"/>
<text text-anchor="middle" x="1224.77" y="-455.8" font-family="Times,serif" font-size="14.00">[&gt;]</text>
</g>
<!-- VAL_SPACE&#45;&gt;ATTR_VAL -->
<g id="edge26" class="edge">
<title>VAL_SPACE&#45;&gt;ATTR_VAL</title>
<path fill="none" stroke="black" d="M1104.63,-443.52C1112.2,-448.34 1120.35,-453.42 1127.98,-458 1146.24,-468.95 1166.78,-480.61 1184.14,-490.29"/>
<polygon fill="black" stroke="black" points="1182.46,-493.36 1192.9,-495.15 1185.86,-487.24 1182.46,-493.36"/>
<text text-anchor="middle" x="1148.66" y="-482.8" font-family="Times,serif" font-size="14.00">[^\s&gt;&#39;&quot;]</text>
</g>
<!-- VAL_SPACE&#45;&gt;VAL_SPACE -->
<g id="edge24" class="edge">
<title>VAL_SPACE&#45;&gt;VAL_SPACE</title>
<path fill="none" stroke="black" d="M1061.97,-458.52C1062.09,-469.61 1065.96,-478.39 1073.59,-478.39 1078.72,-478.39 1082.15,-474.42 1083.88,-468.46"/>
<polygon fill="black" stroke="black" points="1087.36,-468.9 1085.21,-458.52 1080.42,-467.97 1087.36,-468.9"/>
<text text-anchor="middle" x="1073.59" y="-481.19" font-family="Times,serif" font-size="14.00">[\s]</text>
</g>
<!-- VAL_SPACE&#45;&gt;ATTR_QVAL -->
<g id="edge25" class="edge">
<title>VAL_SPACE&#45;&gt;ATTR_QVAL</title>
<path fill="none" stroke="black" d="M1105.14,-405.57C1127.77,-391.92 1158.81,-373.19 1183.47,-358.32"/>
<polygon fill="black" stroke="black" points="1185.48,-361.19 1192.24,-353.03 1181.87,-355.19 1185.48,-361.19"/>
<text text-anchor="middle" x="1148.66" y="-397.4" font-family="Times,serif" font-size="14.00">[&quot;\&#39;] ①</text>
</g>
<!-- ATTR_QVAL&#45;&gt;ATTR_GAP -->
<g id="edge32" class="edge">
<title>ATTR_QVAL&#45;&gt;ATTR_GAP</title>
<path fill="none" stroke="black" d="M1193.94,-312.38C1171.84,-297.48 1140.41,-278.52 1109.98,-268 1067.94,-253.46 1055.36,-254 1010.87,-254 663.15,-254 663.15,-254 663.15,-254 619.66,-254 574.91,-277.22 544.78,-296.91"/>
<polygon fill="black" stroke="black" points="542.64,-294.13 536.3,-302.62 546.55,-299.94 542.64,-294.13"/>
<text text-anchor="middle" x="874.43" y="-262.4" font-family="Times,serif" font-size="14.00">①</text>
</g>
<!-- ATTR_QVAL&#45;&gt;ATTR_QVAL -->
<g id="edge31" class="edge">
<title>ATTR_QVAL&#45;&gt;ATTR_QVAL</title>
<path fill="none" stroke="black" d="M1212.79,-369.72C1213.03,-380.76 1217.02,-389.43 1224.77,-389.43 1229.86,-389.43 1233.33,-385.7 1235.18,-380.01"/>
<polygon fill="black" stroke="black" points="1238.7,-380.14 1236.76,-369.72 1231.79,-379.07 1238.7,-380.14"/>
<text text-anchor="middle" x="1224.77" y="-397.83" font-family="Times,serif" font-size="14.00">not ①</text>
</g>
<!-- ETAG_NAME -->
<g id="node15" class="node">
<title>ETAG_NAME</title>
<ellipse fill="none" stroke="black" cx="507.33" cy="-189" rx="39.31" ry="39.31"/>
<text text-anchor="middle" x="507.33" y="-186" font-family="Times,serif" font-size="10.00">ETAG_NAME</text>
</g>
<!-- ETAG_START&#45;&gt;ETAG_NAME -->
<g id="edge35" class="edge">
<title>ETAG_START&#45;&gt;ETAG_NAME</title>
<path fill="none" stroke="black" d="M389.53,-183.75C410.21,-184.68 435.84,-185.83 457.81,-186.82"/>
<polygon fill="black" stroke="black" points="457.8,-190.32 467.94,-187.27 458.11,-183.33 457.8,-190.32"/>
<text text-anchor="middle" x="428.7" y="-188.8" font-family="Times,serif" font-size="14.00">[\w&#45;]</text>
</g>
<!-- ETAG_START&#45;&gt;ERR_TAG -->
<g id="edge36" class="edge">
<title>ETAG_START&#45;&gt;ERR_TAG</title>
<path fill="none" stroke="black" d="M385.76,-164.69C405.51,-154.19 430.1,-139.79 449.93,-124 459.27,-116.56 468.52,-107.59 476.75,-98.87"/>
<polygon fill="black" stroke="black" points="479.49,-101.06 483.69,-91.33 474.34,-96.32 479.49,-101.06"/>
<text text-anchor="middle" x="428.7" y="-154.8" font-family="Times,serif" font-size="14.00">others</text>
</g>
<!-- ETAG_NAME&#45;&gt;ETAG_END -->
<g id="edge38" class="edge">
<title>ETAG_NAME&#45;&gt;ETAG_END</title>
<path fill="none" stroke="black" d="M546.86,-184.7C587.32,-179.1 652.03,-167.05 703.11,-143 727.08,-131.71 750.85,-114.24 769.51,-98.68"/>
<polygon fill="black" stroke="black" points="771.83,-101.3 777.18,-92.16 767.3,-95.97 771.83,-101.3"/>
<text text-anchor="middle" x="664.15" y="-171.8" font-family="Times,serif" font-size="14.00">[&gt;]</text>
</g>
<!-- ETAG_NAME&#45;&gt;ETAG_NAME -->
<g id="edge37" class="edge">
<title>ETAG_NAME&#45;&gt;ETAG_NAME</title>
<path fill="none" stroke="black" d="M492.72,-225.72C492.94,-237.28 497.81,-246.41 507.33,-246.41 513.88,-246.41 518.23,-242.09 520.38,-235.64"/>
<polygon fill="black" stroke="black" points="523.84,-236.14 521.95,-225.72 516.93,-235.04 523.84,-236.14"/>
<text text-anchor="middle" x="507.33" y="-249.21" font-family="Times,serif" font-size="14.00">[\w&#45;]</text>
</g>
<!-- ETAG_ATTR -->
<g id="node17" class="node">
<title>ETAG_ATTR</title>
<ellipse fill="none" stroke="black" cx="664.15" cy="-65" rx="37.22" ry="37.22"/>
<text text-anchor="middle" x="664.15" y="-62" font-family="Times,serif" font-size="10.00">ETAG_ATTR</text>
</g>
<!-- ETAG_NAME&#45;&gt;ETAG_ATTR -->
<g id="edge39" class="edge">
<title>ETAG_NAME&#45;&gt;ETAG_ATTR</title>
<path fill="none" stroke="black" d="M538.05,-163.95C546.62,-156.8 556.01,-149.05 564.74,-142 584.88,-125.73 607.63,-107.9 626.18,-93.5"/>
<polygon fill="black" stroke="black" points="628.36,-96.24 634.11,-87.34 624.07,-90.7 628.36,-96.24"/>
<text text-anchor="middle" x="585.97" y="-144.8" font-family="Times,serif" font-size="14.00">[^\w&#45;&gt;]</text>
</g>
<!-- ERR_TAG&#45;&gt;NORMAL -->
<g id="edge45" class="edge">
<title>ERR_TAG&#45;&gt;NORMAL</title>
<path fill="none" stroke="black" d="M471.54,-68.75C432.26,-74.12 366.43,-83.14 309.81,-91 247.91,-99.59 176.6,-109.61 130.4,-116.12"/>
<polygon fill="black" stroke="black" points="129.77,-112.67 120.36,-117.53 130.75,-119.6 129.77,-112.67"/>
<text text-anchor="middle" x="277.81" y="-99.8" font-family="Times,serif" font-size="14.00">[&gt;]</text>
</g>
<!-- ERR_TAG&#45;&gt;ERR_TAG -->
<g id="edge44" class="edge">
<title>ERR_TAG&#45;&gt;ERR_TAG</title>
<path fill="none" stroke="black" d="M492.72,-96.96C492.48,-108.57 497.36,-118 507.33,-118 514.2,-118 518.64,-113.54 520.68,-106.98"/>
<polygon fill="black" stroke="black" points="524.16,-107.32 521.95,-96.96 517.22,-106.43 524.16,-107.32"/>
<text text-anchor="middle" x="507.33" y="-120.8" font-family="Times,serif" font-size="14.00">[^&gt;]</text>
</g>
<!-- ETAG_ATTR&#45;&gt;ETAG_END -->
<g id="edge40" class="edge">
<title>ETAG_ATTR&#45;&gt;ETAG_END</title>
<path fill="none" stroke="black" d="M701.45,-65C718.3,-65 738.59,-65 756.8,-65"/>
<polygon fill="black" stroke="black" points="756.95,-68.5 766.95,-65 756.95,-61.5 756.95,-68.5"/>
<text text-anchor="middle" x="735.1" y="-67.8" font-family="Times,serif" font-size="14.00">[&gt;]</text>
</g>
<!-- ETAG_ATTR&#45;&gt;ETAG_ATTR -->
<g id="edge41" class="edge">
<title>ETAG_ATTR&#45;&gt;ETAG_ATTR</title>
<path fill="none" stroke="black" d="M651.03,-99.71C651.09,-111.07 655.47,-120.11 664.15,-120.11 669.98,-120.11 673.87,-116.03 675.82,-109.91"/>
<polygon fill="black" stroke="black" points="679.32,-110.11 677.27,-99.71 672.39,-109.12 679.32,-110.11"/>
<text text-anchor="middle" x="664.15" y="-122.91" font-family="Times,serif" font-size="14.00">[^&gt;]</text>
</g>
</g>
</svg>
